<?xml version="1.0" encoding="UTF-8" standalone="no"?>
<!DOCTYPE svg PUBLIC "-//W3C//DTD SVG 1.1//EN"
 "http://www.w3.org/Graphics/SVG/1.1/DTD/svg11.dtd">
<!-- Generated by graphviz version 12.2.1 (20241206.2353)
 -->
<!-- Title: coded_elements Pages: 1 -->
<svg width="203pt" height="394pt"
 viewBox="0.00 0.00 202.50 394.00" xmlns="http://www.w3.org/2000/svg" xmlns:xlink="http://www.w3.org/1999/xlink">
<g id="graph0" class="graph" transform="scale(1 1) rotate(0) translate(4 390)">
<title>coded_elements</title>
<polygon fill="white" stroke="none" points="-4,4 -4,-390 198.5,-390 198.5,4 -4,4"/>
<!-- loinc -->
<g id="node1" class="node">
<title>loinc</title>
<path fill="#e3f2fd" stroke="#1976d2" d="M154.75,-386C154.75,-386 39.75,-386 39.75,-386 33.75,-386 27.75,-380 27.75,-374 27.75,-374 27.75,-342 27.75,-342 27.75,-336 33.75,-330 39.75,-330 39.75,-330 154.75,-330 154.75,-330 160.75,-330 166.75,-336 166.75,-342 166.75,-342 166.75,-374 166.75,-374 166.75,-380 160.75,-386 154.75,-386"/>
<text text-anchor="middle" x="97.25" y="-372.5" font-family="Arial" font-size="10.00">LOINC</text>
<text text-anchor="middle" x="97.25" y="-360.5" font-family="Arial" font-size="10.00">(http://loinc.org)</text>
<text text-anchor="middle" x="97.25" y="-348.5" font-family="Arial" font-size="10.00">Identifies WHAT was tested</text>
<text text-anchor="middle" x="97.25" y="-336.5" font-family="Arial" font-size="10.00">Example: 2345&#45;7 = Glucose</text>
</g>
<!-- ucum -->
<g id="node2" class="node">
<title>ucum</title>
<path fill="#e8f5e9" stroke="#388e3c" d="M150.62,-272C150.62,-272 43.88,-272 43.88,-272 37.88,-272 31.88,-266 31.88,-260 31.88,-260 31.88,-228 31.88,-228 31.88,-222 37.88,-216 43.88,-216 43.88,-216 150.62,-216 150.62,-216 156.62,-216 162.62,-222 162.62,-228 162.62,-228 162.62,-260 162.62,-260 162.62,-266 156.62,-272 150.62,-272"/>
<text text-anchor="middle" x="97.25" y="-258.5" font-family="Arial" font-size="10.00">UCUM</text>
<text text-anchor="middle" x="97.25" y="-246.5" font-family="Arial" font-size="10.00">(http://unitsofmeasure.org)</text>
<text text-anchor="middle" x="97.25" y="-234.5" font-family="Arial" font-size="10.00">Standardizes UNITS</text>
<text text-anchor="middle" x="97.25" y="-222.5" font-family="Arial" font-size="10.00">Example: mg/dL, mmol/L</text>
</g>
<!-- loinc&#45;&gt;ucum -->
<g id="edge1" class="edge">
<title>loinc&#45;&gt;ucum</title>
<path fill="none" stroke="black" d="M97.25,-329.6C97.25,-315.67 97.25,-298.51 97.25,-283.29"/>
<polygon fill="black" stroke="black" points="100.75,-283.63 97.25,-273.63 93.75,-283.63 100.75,-283.63"/>
</g>
<!-- hl7i -->
<g id="node3" class="node">
<title>hl7i</title>
<path fill="#fff3e0" stroke="#f57c00" d="M155.88,-158C155.88,-158 38.62,-158 38.62,-158 32.62,-158 26.62,-152 26.62,-146 26.62,-146 26.62,-126 26.62,-126 26.62,-120 32.62,-114 38.62,-114 38.62,-114 155.88,-114 155.88,-114 161.88,-114 167.88,-120 167.88,-126 167.88,-126 167.88,-146 167.88,-146 167.88,-152 161.88,-158 155.88,-158"/>
<text text-anchor="middle" x="97.25" y="-144.5" font-family="Arial" font-size="10.00">HL7 Interpretation</text>
<text text-anchor="middle" x="97.25" y="-132.5" font-family="Arial" font-size="10.00">Flags ABNORMAL values</text>
<text text-anchor="middle" x="97.25" y="-120.5" font-family="Arial" font-size="10.00">Example: H = High, L = Low</text>
</g>
<!-- ucum&#45;&gt;hl7i -->
<g id="edge2" class="edge">
<title>ucum&#45;&gt;hl7i</title>
<path fill="none" stroke="black" d="M97.25,-215.7C97.25,-201.57 97.25,-184.22 97.25,-169.41"/>
<polygon fill="black" stroke="black" points="100.75,-169.7 97.25,-159.7 93.75,-169.7 100.75,-169.7"/>
</g>
<!-- snomed -->
<g id="node4" class="node">
<title>snomed</title>
<path fill="#f3e5f5" stroke="#7b1fa2" d="M182.5,-56C182.5,-56 12,-56 12,-56 6,-56 0,-50 0,-44 0,-44 0,-12 0,-12 0,-6 6,0 12,0 12,0 182.5,0 182.5,0 188.5,0 194.5,-6 194.5,-12 194.5,-12 194.5,-44 194.5,-44 194.5,-50 188.5,-56 182.5,-56"/>
<text text-anchor="middle" x="97.25" y="-42.5" font-family="Arial" font-size="10.00">SNOMED CT</text>
<text text-anchor="middle" x="97.25" y="-30.5" font-family="Arial" font-size="10.00">(http://snomed.info/sct)</text>
<text text-anchor="middle" x="97.25" y="-18.5" font-family="Arial" font-size="10.00">Provides CLINICAL meaning</text>
<text text-anchor="middle" x="97.25" y="-6.5" font-family="Arial" font-size="10.00">Example: 166922008 = Elevated glucose</text>
</g>
<!-- hl7i&#45;&gt;snomed -->
<g id="edge3" class="edge">
<title>hl7i&#45;&gt;snomed</title>
<path fill="none" stroke="black" d="M97.25,-113.55C97.25,-100.44 97.25,-83.27 97.25,-67.84"/>
<polygon fill="black" stroke="black" points="100.75,-67.98 97.25,-57.98 93.75,-67.98 100.75,-67.98"/>
</g>
</g>
</svg>
