<?xml version="1.0" encoding="UTF-8" standalone="no"?>
<!DOCTYPE svg PUBLIC "-//W3C//DTD SVG 1.1//EN"
 "http://www.w3.org/Graphics/SVG/1.1/DTD/svg11.dtd">
<!-- Generated by graphviz version 12.2.1 (20241206.2353)
 -->
<!-- Title: hl7_segments Pages: 1 -->
<svg width="950pt" height="52pt"
 viewBox="0.00 0.00 949.50 52.00" xmlns="http://www.w3.org/2000/svg" xmlns:xlink="http://www.w3.org/1999/xlink">
<g id="graph0" class="graph" transform="scale(1 1) rotate(0) translate(4 48)">
<title>hl7_segments</title>
<polygon fill="white" stroke="none" points="-4,4 -4,-48 945.5,-48 945.5,4 -4,4"/>
<!-- msh -->
<g id="node1" class="node">
<title>msh</title>
<path fill="#e3f2fd" stroke="#1976d2" d="M78.25,-44C78.25,-44 12,-44 12,-44 6,-44 0,-38 0,-32 0,-32 0,-12 0,-12 0,-6 6,0 12,0 12,0 78.25,0 78.25,0 84.25,0 90.25,-6 90.25,-12 90.25,-12 90.25,-32 90.25,-32 90.25,-38 84.25,-44 78.25,-44"/>
<text text-anchor="middle" x="45.12" y="-30.5" font-family="Arial" font-size="10.00">MSH</text>
<text text-anchor="middle" x="45.12" y="-18.5" font-family="Arial" font-size="10.00">Message Header</text>
<text text-anchor="middle" x="45.12" y="-6.5" font-family="Arial" font-size="10.00">Routing &amp; Type</text>
</g>
<!-- pid -->
<g id="node2" class="node">
<title>pid</title>
<path fill="#e8f5e9" stroke="#388e3c" d="M215.25,-44C215.25,-44 160.25,-44 160.25,-44 154.25,-44 148.25,-38 148.25,-32 148.25,-32 148.25,-12 148.25,-12 148.25,-6 154.25,0 160.25,0 160.25,0 215.25,0 215.25,0 221.25,0 227.25,-6 227.25,-12 227.25,-12 227.25,-32 227.25,-32 227.25,-38 221.25,-44 215.25,-44"/>
<text text-anchor="middle" x="187.75" y="-30.5" font-family="Arial" font-size="10.00">PID</text>
<text text-anchor="middle" x="187.75" y="-18.5" font-family="Arial" font-size="10.00">Patient ID</text>
<text text-anchor="middle" x="187.75" y="-6.5" font-family="Arial" font-size="10.00">Demographics</text>
</g>
<!-- msh&#45;&gt;pid -->
<g id="edge1" class="edge">
<title>msh&#45;&gt;pid</title>
<path fill="none" stroke="black" d="M90.62,-22C105.24,-22 121.59,-22 136.6,-22"/>
<polygon fill="black" stroke="black" points="136.25,-25.5 146.25,-22 136.25,-18.5 136.25,-25.5"/>
</g>
<!-- pv1 -->
<g id="node3" class="node">
<title>pv1</title>
<path fill="#fff3e0" stroke="#f57c00" d="M342.5,-44C342.5,-44 297.25,-44 297.25,-44 291.25,-44 285.25,-38 285.25,-32 285.25,-32 285.25,-12 285.25,-12 285.25,-6 291.25,0 297.25,0 297.25,0 342.5,0 342.5,0 348.5,0 354.5,-6 354.5,-12 354.5,-12 354.5,-32 354.5,-32 354.5,-38 348.5,-44 342.5,-44"/>
<text text-anchor="middle" x="319.88" y="-30.5" font-family="Arial" font-size="10.00">PV1</text>
<text text-anchor="middle" x="319.88" y="-18.5" font-family="Arial" font-size="10.00">Patient Visit</text>
<text text-anchor="middle" x="319.88" y="-6.5" font-family="Arial" font-size="10.00">Encounter</text>
</g>
<!-- pid&#45;&gt;pv1 -->
<g id="edge2" class="edge">
<title>pid&#45;&gt;pv1</title>
<path fill="none" stroke="black" d="M227.44,-22C242.01,-22 258.7,-22 273.8,-22"/>
<polygon fill="black" stroke="black" points="273.46,-25.5 283.46,-22 273.46,-18.5 273.46,-25.5"/>
</g>
<!-- orc -->
<g id="node4" class="node">
<title>orc</title>
<path fill="#f3e5f5" stroke="#7b1fa2" d="M483.25,-44C483.25,-44 424.5,-44 424.5,-44 418.5,-44 412.5,-38 412.5,-32 412.5,-32 412.5,-12 412.5,-12 412.5,-6 418.5,0 424.5,0 424.5,0 483.25,0 483.25,0 489.25,0 495.25,-6 495.25,-12 495.25,-12 495.25,-32 495.25,-32 495.25,-38 489.25,-44 483.25,-44"/>
<text text-anchor="middle" x="453.88" y="-30.5" font-family="Arial" font-size="10.00">ORC</text>
<text text-anchor="middle" x="453.88" y="-18.5" font-family="Arial" font-size="10.00">Common Order</text>
<text text-anchor="middle" x="453.88" y="-6.5" font-family="Arial" font-size="10.00">Control</text>
</g>
<!-- pv1&#45;&gt;orc -->
<g id="edge3" class="edge">
<title>pv1&#45;&gt;orc</title>
<path fill="none" stroke="black" d="M354.87,-22C369.01,-22 385.73,-22 401.32,-22"/>
<polygon fill="black" stroke="black" points="400.91,-25.5 410.91,-22 400.91,-18.5 400.91,-25.5"/>
</g>
<!-- obr -->
<g id="node5" class="node">
<title>obr</title>
<path fill="#ffcdd2" stroke="#c62828" d="M649.5,-44C649.5,-44 565.25,-44 565.25,-44 559.25,-44 553.25,-38 553.25,-32 553.25,-32 553.25,-12 553.25,-12 553.25,-6 559.25,0 565.25,0 565.25,0 649.5,0 649.5,0 655.5,0 661.5,-6 661.5,-12 661.5,-12 661.5,-32 661.5,-32 661.5,-38 655.5,-44 649.5,-44"/>
<text text-anchor="middle" x="607.38" y="-30.5" font-family="Arial" font-size="10.00">OBR</text>
<text text-anchor="middle" x="607.38" y="-18.5" font-family="Arial" font-size="10.00">Observation Request</text>
<text text-anchor="middle" x="607.38" y="-6.5" font-family="Arial" font-size="10.00">Test Ordered</text>
</g>
<!-- orc&#45;&gt;obr -->
<g id="edge4" class="edge">
<title>orc&#45;&gt;obr</title>
<path fill="none" stroke="black" d="M495.47,-22C509.65,-22 525.94,-22 541.59,-22"/>
<polygon fill="black" stroke="black" points="541.32,-25.5 551.32,-22 541.32,-18.5 541.32,-25.5"/>
</g>
<!-- obx -->
<g id="node6" class="node">
<title>obx</title>
<path fill="#e3f2fd" stroke="#1976d2" d="M807.5,-44C807.5,-44 731.5,-44 731.5,-44 725.5,-44 719.5,-38 719.5,-32 719.5,-32 719.5,-12 719.5,-12 719.5,-6 725.5,0 731.5,0 731.5,0 807.5,0 807.5,0 813.5,0 819.5,-6 819.5,-12 819.5,-12 819.5,-32 819.5,-32 819.5,-38 813.5,-44 807.5,-44"/>
<text text-anchor="middle" x="769.5" y="-30.5" font-family="Arial" font-size="10.00">OBX</text>
<text text-anchor="middle" x="769.5" y="-18.5" font-family="Arial" font-size="10.00">Observation/Result</text>
<text text-anchor="middle" x="769.5" y="-6.5" font-family="Arial" font-size="10.00">Values</text>
</g>
<!-- obr&#45;&gt;obx -->
<g id="edge5" class="edge">
<title>obr&#45;&gt;obx</title>
<path fill="none" stroke="black" d="M661.69,-22C676.48,-22 692.65,-22 707.83,-22"/>
<polygon fill="black" stroke="black" points="707.68,-25.5 717.68,-22 707.68,-18.5 707.68,-25.5"/>
</g>
<!-- nte -->
<g id="node7" class="node">
<title>nte</title>
<path fill="#f5f5f5" stroke="#616161" d="M929.5,-44C929.5,-44 889.5,-44 889.5,-44 883.5,-44 877.5,-38 877.5,-32 877.5,-32 877.5,-12 877.5,-12 877.5,-6 883.5,0 889.5,0 889.5,0 929.5,0 929.5,0 935.5,0 941.5,-6 941.5,-12 941.5,-12 941.5,-32 941.5,-32 941.5,-38 935.5,-44 929.5,-44"/>
<text text-anchor="middle" x="909.5" y="-30.5" font-family="Arial" font-size="10.00">NTE</text>
<text text-anchor="middle" x="909.5" y="-18.5" font-family="Arial" font-size="10.00">Notes</text>
<text text-anchor="middle" x="909.5" y="-6.5" font-family="Arial" font-size="10.00">Comments</text>
</g>
<!-- obx&#45;&gt;nte -->
<g id="edge6" class="edge">
<title>obx&#45;&gt;nte</title>
<path fill="none" stroke="black" d="M819.93,-22C834.94,-22 851.3,-22 865.83,-22"/>
<polygon fill="black" stroke="black" points="865.51,-25.5 875.51,-22 865.51,-18.5 865.51,-25.5"/>
</g>
</g>
</svg>
