<?xml version="1.0" encoding="UTF-8" standalone="no"?>
<!DOCTYPE svg PUBLIC "-//W3C//DTD SVG 1.1//EN"
 "http://www.w3.org/Graphics/SVG/1.1/DTD/svg11.dtd">
<!-- Generated by graphviz version 12.2.1 (20241206.2353)
 -->
<!-- Title: integration_architecture Pages: 1 -->
<svg width="648pt" height="544pt"
 viewBox="0.00 0.00 648.26 543.50" xmlns="http://www.w3.org/2000/svg" xmlns:xlink="http://www.w3.org/1999/xlink">
<g id="graph0" class="graph" transform="scale(1 1) rotate(0) translate(4 539.5)">
<title>integration_architecture</title>
<polygon fill="white" stroke="none" points="-4,4 -4,-539.5 644.26,-539.5 644.26,4 -4,4"/>
<g id="clust1" class="cluster">
<title>cluster_ehr</title>
<path fill="#e3f2fd" stroke="#1976d2" d="M20,-335C20,-335 163,-335 163,-335 169,-335 175,-341 175,-347 175,-347 175,-515.5 175,-515.5 175,-521.5 169,-527.5 163,-527.5 163,-527.5 20,-527.5 20,-527.5 14,-527.5 8,-521.5 8,-515.5 8,-515.5 8,-347 8,-347 8,-341 14,-335 20,-335"/>
<text text-anchor="middle" x="91.5" y="-510.2" font-family="Times,serif" font-size="14.00">EHR System</text>
</g>
<g id="clust2" class="cluster">
<title>cluster_integration</title>
<path fill="#fff3e0" stroke="#f57c00" d="M195,-114.5C195,-114.5 360,-114.5 360,-114.5 366,-114.5 372,-120.5 372,-126.5 372,-126.5 372,-399.5 372,-399.5 372,-405.5 366,-411.5 360,-411.5 360,-411.5 195,-411.5 195,-411.5 189,-411.5 183,-405.5 183,-399.5 183,-399.5 183,-126.5 183,-126.5 183,-120.5 189,-114.5 195,-114.5"/>
<text text-anchor="middle" x="277.5" y="-394.2" font-family="Times,serif" font-size="14.00">Integration Engine</text>
</g>
<g id="clust3" class="cluster">
<title>cluster_lis</title>
<path fill="#e8f5e9" stroke="#388e3c" d="M392,-8C392,-8 553,-8 553,-8 559,-8 565,-14 565,-20 565,-20 565,-179 565,-179 565,-185 559,-191 553,-191 553,-191 392,-191 392,-191 386,-191 380,-185 380,-179 380,-179 380,-20 380,-20 380,-14 386,-8 392,-8"/>
<text text-anchor="middle" x="472.5" y="-173.7" font-family="Times,serif" font-size="14.00">LIS System</text>
</g>
<g id="clust4" class="cluster">
<title>cluster_terminology</title>
<path fill="#f3e5f5" stroke="#7b1fa2" d="M188,-8C188,-8 353,-8 353,-8 359,-8 365,-14 365,-20 365,-20 365,-72.5 365,-72.5 365,-78.5 359,-84.5 353,-84.5 353,-84.5 188,-84.5 188,-84.5 182,-84.5 176,-78.5 176,-72.5 176,-72.5 176,-20 176,-20 176,-14 182,-8 188,-8"/>
<text text-anchor="middle" x="270.5" y="-67.2" font-family="Times,serif" font-size="14.00">Terminology Standards</text>
</g>
<!-- orders -->
<g id="node1" class="node">
<title>orders</title>
<path fill="white" stroke="black" d="M155,-495C155,-495 125,-495 125,-495 119,-495 113,-489 113,-483 113,-483 113,-471 113,-471 113,-465 119,-459 125,-459 125,-459 155,-459 155,-459 161,-459 167,-465 167,-471 167,-471 167,-483 167,-483 167,-489 161,-495 155,-495"/>
<text text-anchor="middle" x="140" y="-479.5" font-family="Arial" font-size="10.00">Orders</text>
<text text-anchor="middle" x="140" y="-467.5" font-family="Arial" font-size="10.00">Module</text>
</g>
<!-- hl7_adapter -->
<g id="node4" class="node">
<title>hl7_adapter</title>
<path fill="white" stroke="black" d="M248,-379C248,-379 218,-379 218,-379 212,-379 206,-373 206,-367 206,-367 206,-355 206,-355 206,-349 212,-343 218,-343 218,-343 248,-343 248,-343 254,-343 260,-349 260,-355 260,-355 260,-367 260,-367 260,-373 254,-379 248,-379"/>
<text text-anchor="middle" x="233" y="-363.5" font-family="Arial" font-size="10.00">HL7</text>
<text text-anchor="middle" x="233" y="-351.5" font-family="Arial" font-size="10.00">Adapter</text>
</g>
<!-- orders&#45;&gt;hl7_adapter -->
<g id="edge1" class="edge">
<title>orders&#45;&gt;hl7_adapter</title>
<path fill="none" stroke="#1976d2" d="M158.21,-458.71C166.69,-450.34 176.71,-439.96 185,-430 195.91,-416.91 206.95,-401.44 215.69,-388.58"/>
<polygon fill="#1976d2" stroke="#1976d2" points="218.39,-390.84 221.05,-380.58 212.57,-386.94 218.39,-390.84"/>
<text text-anchor="middle" x="213.47" y="-421.45" font-family="Arial" font-size="9.00">ORM^O01</text>
</g>
<!-- results -->
<g id="node2" class="node">
<title>results</title>
<path fill="white" stroke="black" d="M58,-495C58,-495 28,-495 28,-495 22,-495 16,-489 16,-483 16,-483 16,-471 16,-471 16,-465 22,-459 28,-459 28,-459 58,-459 58,-459 64,-459 70,-465 70,-471 70,-471 70,-483 70,-483 70,-489 64,-495 58,-495"/>
<text text-anchor="middle" x="43" y="-479.5" font-family="Arial" font-size="10.00">Results</text>
<text text-anchor="middle" x="43" y="-467.5" font-family="Arial" font-size="10.00">Viewer</text>
</g>
<!-- cds -->
<g id="node3" class="node">
<title>cds</title>
<path fill="white" stroke="black" d="M74,-379C74,-379 44,-379 44,-379 38,-379 32,-373 32,-367 32,-367 32,-355 32,-355 32,-349 38,-343 44,-343 44,-343 74,-343 74,-343 80,-343 86,-349 86,-355 86,-355 86,-367 86,-367 86,-373 80,-379 74,-379"/>
<text text-anchor="middle" x="59" y="-363.5" font-family="Arial" font-size="10.00">CDS</text>
<text text-anchor="middle" x="59" y="-351.5" font-family="Arial" font-size="10.00">Engine</text>
</g>
<!-- results&#45;&gt;cds -->
<g id="edge8" class="edge">
<title>results&#45;&gt;cds</title>
<path fill="none" stroke="#1976d2" d="M45.43,-458.69C47.96,-440.69 51.95,-412.22 54.95,-390.82"/>
<polygon fill="#1976d2" stroke="#1976d2" points="58.41,-391.37 56.34,-380.98 51.48,-390.39 58.41,-391.37"/>
<text text-anchor="middle" x="65.15" y="-421.45" font-family="Arial" font-size="9.00">Trigger</text>
</g>
<!-- hl7_adapter&#45;&gt;results -->
<g id="edge7" class="edge">
<title>hl7_adapter&#45;&gt;results</title>
<path fill="none" stroke="#1976d2" d="M221.16,-379.02C212.48,-390.13 199.68,-403.92 185,-411.5 164.22,-422.23 154.91,-411.34 133,-419.5 112.05,-427.31 90.76,-440.39 74.15,-452"/>
<polygon fill="#1976d2" stroke="#1976d2" points="72.25,-449.05 66.18,-457.73 76.34,-454.73 72.25,-449.05"/>
<text text-anchor="middle" x="154" y="-421.45" font-family="Arial" font-size="9.00">ORU^R01</text>
</g>
<!-- fhir_api -->
<g id="node5" class="node">
<title>fhir_api</title>
<path fill="white" stroke="black" d="M340.38,-274.5C340.38,-274.5 305.62,-274.5 305.62,-274.5 299.62,-274.5 293.62,-268.5 293.62,-262.5 293.62,-262.5 293.62,-250.5 293.62,-250.5 293.62,-244.5 299.62,-238.5 305.62,-238.5 305.62,-238.5 340.38,-238.5 340.38,-238.5 346.38,-238.5 352.38,-244.5 352.38,-250.5 352.38,-250.5 352.38,-262.5 352.38,-262.5 352.38,-268.5 346.38,-274.5 340.38,-274.5"/>
<text text-anchor="middle" x="323" y="-259" font-family="Arial" font-size="10.00">FHIR API</text>
<text text-anchor="middle" x="323" y="-247" font-family="Arial" font-size="10.00">Gateway</text>
</g>
<!-- hl7_adapter&#45;&gt;fhir_api -->
<g id="edge2" class="edge">
<title>hl7_adapter&#45;&gt;fhir_api</title>
<path fill="none" stroke="#f57c00" d="M226.61,-342.65C223.38,-330.76 221.51,-315.1 228.75,-303.5 240.58,-284.57 262.7,-273.22 282.54,-266.53"/>
<polygon fill="#f57c00" stroke="#f57c00" points="283.55,-269.88 292.1,-263.63 281.52,-263.18 283.55,-269.88"/>
<text text-anchor="middle" x="249.38" y="-305.45" font-family="Arial" font-size="9.00">Transform</text>
</g>
<!-- fhir_api&#45;&gt;hl7_adapter -->
<g id="edge6" class="edge">
<title>fhir_api&#45;&gt;hl7_adapter</title>
<path fill="none" stroke="#f57c00" stroke-dasharray="5,2" d="M309.06,-274.78C299.84,-286.08 287.39,-301.08 276,-314 270,-320.8 263.37,-328.03 257.15,-334.69"/>
<polygon fill="#f57c00" stroke="#f57c00" points="254.91,-331.96 250.61,-341.64 260.01,-336.76 254.91,-331.96"/>
<text text-anchor="middle" x="304.52" y="-305.45" font-family="Arial" font-size="9.00">Transform</text>
</g>
<!-- term_server -->
<g id="node6" class="node">
<title>term_server</title>
<path fill="white" stroke="black" d="M333.25,-158.5C333.25,-158.5 288.75,-158.5 288.75,-158.5 282.75,-158.5 276.75,-152.5 276.75,-146.5 276.75,-146.5 276.75,-134.5 276.75,-134.5 276.75,-128.5 282.75,-122.5 288.75,-122.5 288.75,-122.5 333.25,-122.5 333.25,-122.5 339.25,-122.5 345.25,-128.5 345.25,-134.5 345.25,-134.5 345.25,-146.5 345.25,-146.5 345.25,-152.5 339.25,-158.5 333.25,-158.5"/>
<text text-anchor="middle" x="311" y="-143" font-family="Arial" font-size="10.00">Terminology</text>
<text text-anchor="middle" x="311" y="-131" font-family="Arial" font-size="10.00">Server</text>
</g>
<!-- fhir_api&#45;&gt;term_server -->
<g id="edge9" class="edge">
<title>fhir_api&#45;&gt;term_server</title>
<path fill="none" stroke="#f57c00" stroke-dasharray="5,2" d="M321.18,-238.19C319.28,-220.19 316.29,-191.72 314.03,-170.32"/>
<polygon fill="#f57c00" stroke="#f57c00" points="317.53,-170.06 313,-160.48 310.56,-170.79 317.53,-170.06"/>
</g>
<!-- lis_orders -->
<g id="node7" class="node">
<title>lis_orders</title>
<path fill="white" stroke="black" d="M448.12,-158.5C448.12,-158.5 399.88,-158.5 399.88,-158.5 393.88,-158.5 387.88,-152.5 387.88,-146.5 387.88,-146.5 387.88,-134.5 387.88,-134.5 387.88,-128.5 393.88,-122.5 399.88,-122.5 399.88,-122.5 448.12,-122.5 448.12,-122.5 454.12,-122.5 460.12,-128.5 460.12,-134.5 460.12,-134.5 460.12,-146.5 460.12,-146.5 460.12,-152.5 454.12,-158.5 448.12,-158.5"/>
<text text-anchor="middle" x="424" y="-143" font-family="Arial" font-size="10.00">Order</text>
<text text-anchor="middle" x="424" y="-131" font-family="Arial" font-size="10.00">Management</text>
</g>
<!-- fhir_api&#45;&gt;lis_orders -->
<g id="edge3" class="edge">
<title>fhir_api&#45;&gt;lis_orders</title>
<path fill="none" stroke="#388e3c" d="M339.2,-238.14C351.16,-225.25 367.75,-207.17 382,-191 388.75,-183.34 395.98,-174.91 402.5,-167.2"/>
<polygon fill="#388e3c" stroke="#388e3c" points="405.02,-169.64 408.79,-159.74 399.67,-165.13 405.02,-169.64"/>
<text text-anchor="middle" x="406.73" y="-200.95" font-family="Arial" font-size="9.00">ServiceRequest</text>
</g>
<!-- loinc_codes -->
<g id="node10" class="node">
<title>loinc_codes</title>
<path fill="white" stroke="black" d="M226,-52C226,-52 196,-52 196,-52 190,-52 184,-46 184,-40 184,-40 184,-28 184,-28 184,-22 190,-16 196,-16 196,-16 226,-16 226,-16 232,-16 238,-22 238,-28 238,-28 238,-40 238,-40 238,-46 232,-52 226,-52"/>
<text text-anchor="middle" x="211" y="-36.5" font-family="Arial" font-size="10.00">LOINC</text>
<text text-anchor="middle" x="211" y="-24.5" font-family="Arial" font-size="10.00">Codes</text>
</g>
<!-- term_server&#45;&gt;loinc_codes -->
<g id="edge10" class="edge">
<title>term_server&#45;&gt;loinc_codes</title>
<path fill="none" stroke="#7b1fa2" d="M294.49,-122.24C278.42,-105.45 253.81,-79.74 235.47,-60.57"/>
<polygon fill="#7b1fa2" stroke="#7b1fa2" points="238.03,-58.18 228.58,-53.38 232.97,-63.02 238.03,-58.18"/>
</g>
<!-- snomed_concepts -->
<g id="node11" class="node">
<title>snomed_concepts</title>
<path fill="white" stroke="black" d="M345.38,-52C345.38,-52 292.62,-52 292.62,-52 286.62,-52 280.62,-46 280.62,-40 280.62,-40 280.62,-28 280.62,-28 280.62,-22 286.62,-16 292.62,-16 292.62,-16 345.38,-16 345.38,-16 351.38,-16 357.38,-22 357.38,-28 357.38,-28 357.38,-40 357.38,-40 357.38,-46 351.38,-52 345.38,-52"/>
<text text-anchor="middle" x="319" y="-36.5" font-family="Arial" font-size="10.00">SNOMED CT</text>
<text text-anchor="middle" x="319" y="-24.5" font-family="Arial" font-size="10.00">Concepts</text>
</g>
<!-- term_server&#45;&gt;snomed_concepts -->
<g id="edge11" class="edge">
<title>term_server&#45;&gt;snomed_concepts</title>
<path fill="none" stroke="#7b1fa2" d="M312.32,-122.24C313.54,-106.36 315.36,-82.49 316.8,-63.74"/>
<polygon fill="#7b1fa2" stroke="#7b1fa2" points="320.29,-64.03 317.56,-53.79 313.31,-63.49 320.29,-64.03"/>
</g>
<!-- lis_analyzer -->
<g id="node8" class="node">
<title>lis_analyzer</title>
<path fill="white" stroke="black" d="M545.12,-158.5C545.12,-158.5 514.88,-158.5 514.88,-158.5 508.88,-158.5 502.88,-152.5 502.88,-146.5 502.88,-146.5 502.88,-134.5 502.88,-134.5 502.88,-128.5 508.88,-122.5 514.88,-122.5 514.88,-122.5 545.12,-122.5 545.12,-122.5 551.12,-122.5 557.12,-128.5 557.12,-134.5 557.12,-134.5 557.12,-146.5 557.12,-146.5 557.12,-152.5 551.12,-158.5 545.12,-158.5"/>
<text text-anchor="middle" x="530" y="-143" font-family="Arial" font-size="10.00">Analyzer</text>
<text text-anchor="middle" x="530" y="-131" font-family="Arial" font-size="10.00">Interface</text>
</g>
<!-- lis_results -->
<g id="node9" class="node">
<title>lis_results</title>
<path fill="white" stroke="black" d="M545.38,-52C545.38,-52 504.62,-52 504.62,-52 498.62,-52 492.62,-46 492.62,-40 492.62,-40 492.62,-28 492.62,-28 492.62,-22 498.62,-16 504.62,-16 504.62,-16 545.38,-16 545.38,-16 551.38,-16 557.38,-22 557.38,-28 557.38,-28 557.38,-40 557.38,-40 557.38,-46 551.38,-52 545.38,-52"/>
<text text-anchor="middle" x="525" y="-36.5" font-family="Arial" font-size="10.00">Results</text>
<text text-anchor="middle" x="525" y="-24.5" font-family="Arial" font-size="10.00">Processing</text>
</g>
<!-- lis_analyzer&#45;&gt;lis_results -->
<g id="edge4" class="edge">
<title>lis_analyzer&#45;&gt;lis_results</title>
<path fill="none" stroke="#388e3c" d="M529.17,-122.24C528.41,-106.36 527.27,-82.49 526.37,-63.74"/>
<polygon fill="#388e3c" stroke="#388e3c" points="529.87,-63.61 525.9,-53.79 522.88,-63.95 529.87,-63.61"/>
</g>
<!-- lis_results&#45;&gt;fhir_api -->
<g id="edge5" class="edge">
<title>lis_results&#45;&gt;fhir_api</title>
<path fill="none" stroke="#388e3c" d="M540.59,-52.2C566.51,-82.92 612.47,-148.05 579,-191 552.75,-224.68 429.11,-243.5 363.75,-251.25"/>
<polygon fill="#388e3c" stroke="#388e3c" points="363.67,-247.74 354.14,-252.35 364.47,-254.69 363.67,-247.74"/>
<text text-anchor="middle" x="615.51" y="-137.2" font-family="Arial" font-size="9.00">Observation</text>
</g>
</g>
</svg>
