<?xml version="1.0" encoding="UTF-8" standalone="no"?>
<!DOCTYPE svg PUBLIC "-//W3C//DTD SVG 1.1//EN"
 "http://www.w3.org/Graphics/SVG/1.1/DTD/svg11.dtd">
<!-- Generated by graphviz version 12.2.1 (20241206.2353)
 -->
<!-- Title: interoperability_evolution Pages: 1 -->
<svg width="197pt" height="581pt"
 viewBox="0.00 0.00 197.00 581.00" xmlns="http://www.w3.org/2000/svg" xmlns:xlink="http://www.w3.org/1999/xlink">
<g id="graph0" class="graph" transform="scale(1 1) rotate(0) translate(4 577)">
<title>interoperability_evolution</title>
<polygon fill="white" stroke="none" points="-4,4 -4,-577 193,-577 193,4 -4,4"/>
<g id="clust1" class="cluster">
<title>cluster_syntactic</title>
<path fill="#ffcdd2" stroke="#c62828" d="M20,-359.5C20,-359.5 150,-359.5 150,-359.5 156,-359.5 162,-365.5 162,-371.5 162,-371.5 162,-553 162,-553 162,-559 156,-565 150,-565 150,-565 20,-565 20,-565 14,-565 8,-559 8,-553 8,-553 8,-371.5 8,-371.5 8,-365.5 14,-359.5 20,-359.5"/>
<text text-anchor="middle" x="85" y="-547.7" font-family="Times,serif" font-size="14.00">Syntactic Interoperability</text>
</g>
<g id="clust2" class="cluster">
<title>cluster_semantic</title>
<path fill="#e8f5e9" stroke="#388e3c" d="M39,-8C39,-8 169,-8 169,-8 175,-8 181,-14 181,-20 181,-20 181,-201.5 181,-201.5 181,-207.5 175,-213.5 169,-213.5 169,-213.5 39,-213.5 39,-213.5 33,-213.5 27,-207.5 27,-201.5 27,-201.5 27,-20 27,-20 27,-14 33,-8 39,-8"/>
<text text-anchor="middle" x="104" y="-196.2" font-family="Times,serif" font-size="14.00">Semantic Interoperability</text>
</g>
<!-- sys_a1 -->
<g id="node1" class="node">
<title>sys_a1</title>
<path fill="white" stroke="#1976d2" d="M111.88,-532.5C111.88,-532.5 74.12,-532.5 74.12,-532.5 68.12,-532.5 62.12,-526.5 62.12,-520.5 62.12,-520.5 62.12,-508.5 62.12,-508.5 62.12,-502.5 68.12,-496.5 74.12,-496.5 74.12,-496.5 111.88,-496.5 111.88,-496.5 117.88,-496.5 123.88,-502.5 123.88,-508.5 123.88,-508.5 123.88,-520.5 123.88,-520.5 123.88,-526.5 117.88,-532.5 111.88,-532.5"/>
<text text-anchor="middle" x="93" y="-510.8" font-family="Arial" font-size="11.00">System A</text>
</g>
<!-- sys_b1 -->
<g id="node2" class="node">
<title>sys_b1</title>
<path fill="white" stroke="#1976d2" d="M112.25,-403.5C112.25,-403.5 73.75,-403.5 73.75,-403.5 67.75,-403.5 61.75,-397.5 61.75,-391.5 61.75,-391.5 61.75,-379.5 61.75,-379.5 61.75,-373.5 67.75,-367.5 73.75,-367.5 73.75,-367.5 112.25,-367.5 112.25,-367.5 118.25,-367.5 124.25,-373.5 124.25,-379.5 124.25,-379.5 124.25,-391.5 124.25,-391.5 124.25,-397.5 118.25,-403.5 112.25,-403.5"/>
<text text-anchor="middle" x="93" y="-381.8" font-family="Arial" font-size="11.00">System B</text>
</g>
<!-- sys_a1&#45;&gt;sys_b1 -->
<g id="edge1" class="edge">
<title>sys_a1&#45;&gt;sys_b1</title>
<path fill="none" stroke="black" d="M93,-496.11C93,-475.21 93,-439.85 93,-414.95"/>
<polygon fill="black" stroke="black" points="96.5,-415.2 93,-405.2 89.5,-415.2 96.5,-415.2"/>
<text text-anchor="middle" x="113.25" y="-451.95" font-family="Arial" font-size="9.00">Raw Data</text>
<text text-anchor="middle" x="113.25" y="-441.45" font-family="Arial" font-size="9.00">(bytes)</text>
</g>
<!-- evolve -->
<g id="node5" class="node">
<title>evolve</title>
<path fill="lightgrey" stroke="none" d="M146.75,-294.5C146.75,-294.5 39.25,-294.5 39.25,-294.5 33.25,-294.5 27.25,-288.5 27.25,-282.5 27.25,-282.5 27.25,-270.5 27.25,-270.5 27.25,-264.5 33.25,-258.5 39.25,-258.5 39.25,-258.5 146.75,-258.5 146.75,-258.5 152.75,-258.5 158.75,-264.5 158.75,-270.5 158.75,-270.5 158.75,-282.5 158.75,-282.5 158.75,-288.5 152.75,-294.5 146.75,-294.5"/>
<text text-anchor="middle" x="93" y="-272.23" font-family="Arial" font-size="12.00" fill="#f57c00">MUST EVOLVE INTO</text>
</g>
<!-- sys_b1&#45;&gt;evolve -->
<!-- sys_a2 -->
<g id="node3" class="node">
<title>sys_a2</title>
<path fill="white" stroke="#1976d2" d="M111.88,-181C111.88,-181 74.12,-181 74.12,-181 68.12,-181 62.12,-175 62.12,-169 62.12,-169 62.12,-157 62.12,-157 62.12,-151 68.12,-145 74.12,-145 74.12,-145 111.88,-145 111.88,-145 117.88,-145 123.88,-151 123.88,-157 123.88,-157 123.88,-169 123.88,-169 123.88,-175 117.88,-181 111.88,-181"/>
<text text-anchor="middle" x="93" y="-159.3" font-family="Arial" font-size="11.00">System A</text>
</g>
<!-- sys_b2 -->
<g id="node4" class="node">
<title>sys_b2</title>
<path fill="white" stroke="#1976d2" d="M112.25,-52C112.25,-52 73.75,-52 73.75,-52 67.75,-52 61.75,-46 61.75,-40 61.75,-40 61.75,-28 61.75,-28 61.75,-22 67.75,-16 73.75,-16 73.75,-16 112.25,-16 112.25,-16 118.25,-16 124.25,-22 124.25,-28 124.25,-28 124.25,-40 124.25,-40 124.25,-46 118.25,-52 112.25,-52"/>
<text text-anchor="middle" x="93" y="-30.3" font-family="Arial" font-size="11.00">System B</text>
</g>
<!-- sys_a2&#45;&gt;sys_b2 -->
<g id="edge2" class="edge">
<title>sys_a2&#45;&gt;sys_b2</title>
<path fill="none" stroke="black" d="M93,-133.3C93,-112.43 93,-84.3 93,-63.49"/>
<polygon fill="black" stroke="black" points="89.5,-133.09 93,-143.09 96.5,-133.09 89.5,-133.09"/>
<polygon fill="black" stroke="black" points="96.5,-63.7 93,-53.7 89.5,-63.7 96.5,-63.7"/>
<text text-anchor="middle" x="126.75" y="-100.45" font-family="Arial" font-size="9.00">Meaningful Data</text>
<text text-anchor="middle" x="126.75" y="-89.95" font-family="Arial" font-size="9.00">(with context)</text>
</g>
<!-- evolve&#45;&gt;sys_a2 -->
</g>
</svg>
