<?xml version="1.0" encoding="UTF-8" standalone="no"?>
<!DOCTYPE svg PUBLIC "-//W3C//DTD SVG 1.1//EN"
 "http://www.w3.org/Graphics/SVG/1.1/DTD/svg11.dtd">
<!-- Generated by graphviz version 12.2.1 (20241206.2353)
 -->
<!-- Title: interoperability_success Pages: 1 -->
<svg width="216pt" height="404pt"
 viewBox="0.00 0.00 216.00 404.00" xmlns="http://www.w3.org/2000/svg" xmlns:xlink="http://www.w3.org/1999/xlink">
<g id="graph0" class="graph" transform="scale(1 1) rotate(0) translate(4 400)">
<title>interoperability_success</title>
<polygon fill="white" stroke="none" points="-4,4 -4,-400 212,-400 212,4 -4,4"/>
<!-- title -->
<g id="node1" class="node">
<title>title</title>
<path fill="lightgrey" stroke="none" d="M196,-396C196,-396 12,-396 12,-396 6,-396 0,-390 0,-384 0,-384 0,-372 0,-372 0,-366 6,-360 12,-360 12,-360 196,-360 196,-360 202,-360 208,-366 208,-372 208,-372 208,-384 208,-384 208,-390 202,-396 196,-396"/>
<text text-anchor="middle" x="104" y="-372.57" font-family="Arial" font-size="14.00" fill="#616161">Interoperability Success Factors</text>
</g>
<!-- l -->
<g id="node2" class="node">
<title>l</title>
<path fill="#e3f2fd" stroke="#1976d2" d="M152.88,-317C152.88,-317 55.12,-317 55.12,-317 49.12,-317 43.12,-311 43.12,-305 43.12,-305 43.12,-285 43.12,-285 43.12,-279 49.12,-273 55.12,-273 55.12,-273 152.88,-273 152.88,-273 158.88,-273 164.88,-279 164.88,-285 164.88,-285 164.88,-305 164.88,-305 164.88,-311 158.88,-317 152.88,-317"/>
<text text-anchor="middle" x="104" y="-303.5" font-family="Arial" font-size="10.00">1. LOINC CODES</text>
<text text-anchor="middle" x="104" y="-291.5" font-family="Arial" font-size="10.00">Glucose test recognized</text>
<text text-anchor="middle" x="104" y="-279.5" font-family="Arial" font-size="10.00">identically worldwide</text>
</g>
<!-- title&#45;&gt;l -->
<!-- r -->
<g id="node3" class="node">
<title>r</title>
<path fill="#e8f5e9" stroke="#388e3c" d="M160,-230C160,-230 48,-230 48,-230 42,-230 36,-224 36,-218 36,-218 36,-198 36,-198 36,-192 42,-186 48,-186 48,-186 160,-186 160,-186 166,-186 172,-192 172,-198 172,-198 172,-218 172,-218 172,-224 166,-230 160,-230"/>
<text text-anchor="middle" x="104" y="-216.5" font-family="Arial" font-size="10.00">2. REFERENCE RANGES</text>
<text text-anchor="middle" x="104" y="-204.5" font-family="Arial" font-size="10.00">Automatic flagging</text>
<text text-anchor="middle" x="104" y="-192.5" font-family="Arial" font-size="10.00">in any EHR</text>
</g>
<!-- l&#45;&gt;r -->
<g id="edge2" class="edge">
<title>l&#45;&gt;r</title>
<path fill="none" stroke="black" d="M104,-272.55C104,-263.19 104,-252 104,-241.64"/>
<polygon fill="black" stroke="black" points="107.5,-241.96 104,-231.96 100.5,-241.96 107.5,-241.96"/>
</g>
<!-- s -->
<g id="node4" class="node">
<title>s</title>
<path fill="#fff3e0" stroke="#f57c00" d="M170.12,-143C170.12,-143 37.88,-143 37.88,-143 31.88,-143 25.88,-137 25.88,-131 25.88,-131 25.88,-99 25.88,-99 25.88,-93 31.88,-87 37.88,-87 37.88,-87 170.12,-87 170.12,-87 176.12,-87 182.12,-93 182.12,-99 182.12,-99 182.12,-131 182.12,-131 182.12,-137 176.12,-143 170.12,-143"/>
<text text-anchor="middle" x="104" y="-129.5" font-family="Arial" font-size="10.00">3. STRUCTURED DATA</text>
<text text-anchor="middle" x="104" y="-117.5" font-family="Arial" font-size="10.00">CDS rules fire:</text>
<text text-anchor="middle" x="104" y="-105.5" font-family="Arial" font-size="10.00">Glucose &gt;126 AND HbA1c &gt;6.5</text>
<text text-anchor="middle" x="104" y="-93.5" font-family="Arial" font-size="10.00">→ Diabetes workup</text>
</g>
<!-- r&#45;&gt;s -->
<g id="edge3" class="edge">
<title>r&#45;&gt;s</title>
<path fill="none" stroke="black" d="M104,-185.89C104,-176.56 104,-165.29 104,-154.54"/>
<polygon fill="black" stroke="black" points="107.5,-154.72 104,-144.72 100.5,-154.72 107.5,-154.72"/>
</g>
<!-- f -->
<g id="node5" class="node">
<title>f</title>
<path fill="#f3e5f5" stroke="#7b1fa2" d="M151.38,-44C151.38,-44 56.62,-44 56.62,-44 50.62,-44 44.62,-38 44.62,-32 44.62,-32 44.62,-12 44.62,-12 44.62,-6 50.62,0 56.62,0 56.62,0 151.38,0 151.38,0 157.38,0 163.38,-6 163.38,-12 163.38,-12 163.38,-32 163.38,-32 163.38,-38 157.38,-44 151.38,-44"/>
<text text-anchor="middle" x="104" y="-30.5" font-family="Arial" font-size="10.00">4. FHIR RESOURCES</text>
<text text-anchor="middle" x="104" y="-18.5" font-family="Arial" font-size="10.00">Real&#45;time API queries</text>
<text text-anchor="middle" x="104" y="-6.5" font-family="Arial" font-size="10.00">across systems</text>
</g>
<!-- s&#45;&gt;f -->
<g id="edge4" class="edge">
<title>s&#45;&gt;f</title>
<path fill="none" stroke="black" d="M104,-86.7C104,-76.91 104,-65.79 104,-55.6"/>
<polygon fill="black" stroke="black" points="107.5,-55.72 104,-45.72 100.5,-55.72 107.5,-55.72"/>
</g>
</g>
</svg>
