<?xml version="1.0" encoding="UTF-8" standalone="no"?>
<!DOCTYPE svg PUBLIC "-//W3C//DTD SVG 1.1//EN"
 "http://www.w3.org/Graphics/SVG/1.1/DTD/svg11.dtd">
<!-- Generated by graphviz version 12.2.1 (20241206.2353)
 -->
<!-- Title: lab_workflow_timeline Pages: 1 -->
<svg width="125pt" height="748pt"
 viewBox="0.00 0.00 124.50 748.00" xmlns="http://www.w3.org/2000/svg" xmlns:xlink="http://www.w3.org/1999/xlink">
<g id="graph0" class="graph" transform="scale(1 1) rotate(0) translate(4 744)">
<title>lab_workflow_timeline</title>
<polygon fill="white" stroke="none" points="-4,4 -4,-744 120.5,-744 120.5,4 -4,4"/>
<!-- t1 -->
<g id="node1" class="node">
<title>t1</title>
<path fill="#e8f5e9" stroke="#388e3c" d="M82.75,-740C82.75,-740 33.75,-740 33.75,-740 27.75,-740 21.75,-734 21.75,-728 21.75,-728 21.75,-708 21.75,-708 21.75,-702 27.75,-696 33.75,-696 33.75,-696 82.75,-696 82.75,-696 88.75,-696 94.75,-702 94.75,-708 94.75,-708 94.75,-728 94.75,-728 94.75,-734 88.75,-740 82.75,-740"/>
<text text-anchor="middle" x="58.25" y="-726.5" font-family="Arial" font-size="10.00">09:00 AM</text>
<text text-anchor="middle" x="58.25" y="-714.5" font-family="Arial" font-size="10.00">Patient visits</text>
<text text-anchor="middle" x="58.25" y="-702.5" font-family="Arial" font-size="10.00">Dr. Williams</text>
</g>
<!-- t2 -->
<g id="node2" class="node">
<title>t2</title>
<path fill="#e3f2fd" stroke="#1976d2" d="M104.5,-653C104.5,-653 12,-653 12,-653 6,-653 0,-647 0,-641 0,-641 0,-621 0,-621 0,-615 6,-609 12,-609 12,-609 104.5,-609 104.5,-609 110.5,-609 116.5,-615 116.5,-621 116.5,-621 116.5,-641 116.5,-641 116.5,-647 110.5,-653 104.5,-653"/>
<text text-anchor="middle" x="58.25" y="-639.5" font-family="Arial" font-size="10.00">09:30 AM</text>
<text text-anchor="middle" x="58.25" y="-627.5" font-family="Arial" font-size="10.00">Physician orders:</text>
<text text-anchor="middle" x="58.25" y="-615.5" font-family="Arial" font-size="10.00">Glucose, HbA1c, CMP</text>
</g>
<!-- t1&#45;&gt;t2 -->
<g id="edge1" class="edge">
<title>t1&#45;&gt;t2</title>
<path fill="none" stroke="black" d="M58.25,-695.55C58.25,-686.19 58.25,-675 58.25,-664.64"/>
<polygon fill="black" stroke="black" points="61.75,-664.96 58.25,-654.96 54.75,-664.96 61.75,-664.96"/>
</g>
<!-- t3 -->
<g id="node3" class="node">
<title>t3</title>
<path fill="#fff3e0" stroke="#f57c00" d="M98.5,-566C98.5,-566 18,-566 18,-566 12,-566 6,-560 6,-554 6,-554 6,-534 6,-534 6,-528 12,-522 18,-522 18,-522 98.5,-522 98.5,-522 104.5,-522 110.5,-528 110.5,-534 110.5,-534 110.5,-554 110.5,-554 110.5,-560 104.5,-566 98.5,-566"/>
<text text-anchor="middle" x="58.25" y="-552.5" font-family="Arial" font-size="10.00">09:35 AM</text>
<text text-anchor="middle" x="58.25" y="-540.5" font-family="Arial" font-size="10.00">EHR generates</text>
<text text-anchor="middle" x="58.25" y="-528.5" font-family="Arial" font-size="10.00">ORM^O01 message</text>
</g>
<!-- t2&#45;&gt;t3 -->
<g id="edge2" class="edge">
<title>t2&#45;&gt;t3</title>
<path fill="none" stroke="black" d="M58.25,-608.55C58.25,-599.19 58.25,-588 58.25,-577.64"/>
<polygon fill="black" stroke="black" points="61.75,-577.96 58.25,-567.96 54.75,-577.96 61.75,-577.96"/>
</g>
<!-- t4 -->
<g id="node4" class="node">
<title>t4</title>
<path fill="#e8f5e9" stroke="#388e3c" d="M94.75,-479C94.75,-479 21.75,-479 21.75,-479 15.75,-479 9.75,-473 9.75,-467 9.75,-467 9.75,-447 9.75,-447 9.75,-441 15.75,-435 21.75,-435 21.75,-435 94.75,-435 94.75,-435 100.75,-435 106.75,-441 106.75,-447 106.75,-447 106.75,-467 106.75,-467 106.75,-473 100.75,-479 94.75,-479"/>
<text text-anchor="middle" x="58.25" y="-465.5" font-family="Arial" font-size="10.00">09:36 AM</text>
<text text-anchor="middle" x="58.25" y="-453.5" font-family="Arial" font-size="10.00">LIS receives order</text>
<text text-anchor="middle" x="58.25" y="-441.5" font-family="Arial" font-size="10.00">creates work order</text>
</g>
<!-- t3&#45;&gt;t4 -->
<g id="edge3" class="edge">
<title>t3&#45;&gt;t4</title>
<path fill="none" stroke="black" d="M58.25,-521.55C58.25,-512.19 58.25,-501 58.25,-490.64"/>
<polygon fill="black" stroke="black" points="61.75,-490.96 58.25,-480.96 54.75,-490.96 61.75,-490.96"/>
</g>
<!-- t5 -->
<g id="node5" class="node">
<title>t5</title>
<path fill="#f3e5f5" stroke="#7b1fa2" d="M98.5,-392C98.5,-392 18,-392 18,-392 12,-392 6,-386 6,-380 6,-380 6,-360 6,-360 6,-354 12,-348 18,-348 18,-348 98.5,-348 98.5,-348 104.5,-348 110.5,-354 110.5,-360 110.5,-360 110.5,-380 110.5,-380 110.5,-386 104.5,-392 98.5,-392"/>
<text text-anchor="middle" x="58.25" y="-378.5" font-family="Arial" font-size="10.00">09:45 AM</text>
<text text-anchor="middle" x="58.25" y="-366.5" font-family="Arial" font-size="10.00">Phlebotomy collects</text>
<text text-anchor="middle" x="58.25" y="-354.5" font-family="Arial" font-size="10.00">blood samples</text>
</g>
<!-- t4&#45;&gt;t5 -->
<g id="edge4" class="edge">
<title>t4&#45;&gt;t5</title>
<path fill="none" stroke="black" d="M58.25,-434.55C58.25,-425.19 58.25,-414 58.25,-403.64"/>
<polygon fill="black" stroke="black" points="61.75,-403.96 58.25,-393.96 54.75,-403.96 61.75,-403.96"/>
</g>
<!-- t6 -->
<g id="node6" class="node">
<title>t6</title>
<path fill="#e8f5e9" stroke="#388e3c" d="M83.12,-305C83.12,-305 33.38,-305 33.38,-305 27.38,-305 21.38,-299 21.38,-293 21.38,-293 21.38,-273 21.38,-273 21.38,-267 27.38,-261 33.38,-261 33.38,-261 83.12,-261 83.12,-261 89.12,-261 95.12,-267 95.12,-273 95.12,-273 95.12,-293 95.12,-293 95.12,-299 89.12,-305 83.12,-305"/>
<text text-anchor="middle" x="58.25" y="-291.5" font-family="Arial" font-size="10.00">11:30 AM</text>
<text text-anchor="middle" x="58.25" y="-279.5" font-family="Arial" font-size="10.00">Lab analyzes</text>
<text text-anchor="middle" x="58.25" y="-267.5" font-family="Arial" font-size="10.00">specimens</text>
</g>
<!-- t5&#45;&gt;t6 -->
<g id="edge5" class="edge">
<title>t5&#45;&gt;t6</title>
<path fill="none" stroke="black" d="M58.25,-347.55C58.25,-338.19 58.25,-327 58.25,-316.64"/>
<polygon fill="black" stroke="black" points="61.75,-316.96 58.25,-306.96 54.75,-316.96 61.75,-316.96"/>
</g>
<!-- t7 -->
<g id="node7" class="node">
<title>t7</title>
<path fill="#fff3e0" stroke="#f57c00" d="M98.12,-218C98.12,-218 18.38,-218 18.38,-218 12.38,-218 6.38,-212 6.38,-206 6.38,-206 6.38,-186 6.38,-186 6.38,-180 12.38,-174 18.38,-174 18.38,-174 98.12,-174 98.12,-174 104.12,-174 110.12,-180 110.12,-186 110.12,-186 110.12,-206 110.12,-206 110.12,-212 104.12,-218 98.12,-218"/>
<text text-anchor="middle" x="58.25" y="-204.5" font-family="Arial" font-size="10.00">12:00 PM</text>
<text text-anchor="middle" x="58.25" y="-192.5" font-family="Arial" font-size="10.00">LIS generates</text>
<text text-anchor="middle" x="58.25" y="-180.5" font-family="Arial" font-size="10.00">ORU^R01 message</text>
</g>
<!-- t6&#45;&gt;t7 -->
<g id="edge6" class="edge">
<title>t6&#45;&gt;t7</title>
<path fill="none" stroke="black" d="M58.25,-260.55C58.25,-251.19 58.25,-240 58.25,-229.64"/>
<polygon fill="black" stroke="black" points="61.75,-229.96 58.25,-219.96 54.75,-229.96 61.75,-229.96"/>
</g>
<!-- t8 -->
<g id="node8" class="node">
<title>t8</title>
<path fill="#ffcdd2" stroke="#c62828" d="M101.12,-131C101.12,-131 15.38,-131 15.38,-131 9.38,-131 3.38,-125 3.38,-119 3.38,-119 3.38,-99 3.38,-99 3.38,-93 9.38,-87 15.38,-87 15.38,-87 101.12,-87 101.12,-87 107.12,-87 113.12,-93 113.12,-99 113.12,-99 113.12,-119 113.12,-119 113.12,-125 107.12,-131 101.12,-131"/>
<text text-anchor="middle" x="58.25" y="-117.5" font-family="Arial" font-size="10.00">12:01 PM</text>
<text text-anchor="middle" x="58.25" y="-105.5" font-family="Arial" font-size="10.00">EHR receives results</text>
<text text-anchor="middle" x="58.25" y="-93.5" font-family="Arial" font-size="10.00">triggers CDS alerts</text>
</g>
<!-- t7&#45;&gt;t8 -->
<g id="edge7" class="edge">
<title>t7&#45;&gt;t8</title>
<path fill="none" stroke="black" d="M58.25,-173.55C58.25,-164.19 58.25,-153 58.25,-142.64"/>
<polygon fill="black" stroke="black" points="61.75,-142.96 58.25,-132.96 54.75,-142.96 61.75,-142.96"/>
</g>
<!-- t9 -->
<g id="node9" class="node">
<title>t9</title>
<path fill="#e3f2fd" stroke="#1976d2" d="M101.12,-44C101.12,-44 15.38,-44 15.38,-44 9.38,-44 3.38,-38 3.38,-32 3.38,-32 3.38,-12 3.38,-12 3.38,-6 9.38,0 15.38,0 15.38,0 101.12,0 101.12,0 107.12,0 113.12,-6 113.12,-12 113.12,-12 113.12,-32 113.12,-32 113.12,-38 107.12,-44 101.12,-44"/>
<text text-anchor="middle" x="58.25" y="-30.5" font-family="Arial" font-size="10.00">02:00 PM</text>
<text text-anchor="middle" x="58.25" y="-18.5" font-family="Arial" font-size="10.00">Dr. Williams reviews:</text>
<text text-anchor="middle" x="58.25" y="-6.5" font-family="Arial" font-size="10.00">Diagnosis confirmed</text>
</g>
<!-- t8&#45;&gt;t9 -->
<g id="edge8" class="edge">
<title>t8&#45;&gt;t9</title>
<path fill="none" stroke="black" d="M58.25,-86.55C58.25,-77.19 58.25,-66 58.25,-55.64"/>
<polygon fill="black" stroke="black" points="61.75,-55.96 58.25,-45.96 54.75,-55.96 61.75,-55.96"/>
</g>
</g>
</svg>
