<?xml version="1.0" encoding="UTF-8" standalone="no"?>
<!DOCTYPE svg PUBLIC "-//W3C//DTD SVG 1.1//EN"
 "http://www.w3.org/Graphics/SVG/1.1/DTD/svg11.dtd">
<!-- Generated by graphviz version 12.2.1 (20241206.2353)
 -->
<!-- Title: loinc_model Pages: 1 -->
<svg width="197pt" height="566pt"
 viewBox="0.00 0.00 197.25 566.00" xmlns="http://www.w3.org/2000/svg" xmlns:xlink="http://www.w3.org/1999/xlink">
<g id="graph0" class="graph" transform="scale(1 1) rotate(0) translate(4 562)">
<title>loinc_model</title>
<polygon fill="white" stroke="none" points="-4,4 -4,-562 193.25,-562 193.25,4 -4,4"/>
<!-- title -->
<g id="node1" class="node">
<title>title</title>
<path fill="lightgrey" stroke="none" d="M177.25,-558C177.25,-558 12,-558 12,-558 6,-558 0,-552 0,-546 0,-546 0,-534 0,-534 0,-528 6,-522 12,-522 12,-522 177.25,-522 177.25,-522 183.25,-522 189.25,-528 189.25,-534 189.25,-534 189.25,-546 189.25,-546 189.25,-552 183.25,-558 177.25,-558"/>
<text text-anchor="middle" x="94.62" y="-534.58" font-family="Arial" font-size="14.00" fill="#616161">LOINC 6&#45;Part Model: 2345&#45;7</text>
</g>
<!-- p1 -->
<g id="node2" class="node">
<title>p1</title>
<path fill="#e3f2fd" stroke="#1976d2" d="M139.38,-479C139.38,-479 49.88,-479 49.88,-479 43.88,-479 37.88,-473 37.88,-467 37.88,-467 37.88,-447 37.88,-447 37.88,-441 43.88,-435 49.88,-435 49.88,-435 139.38,-435 139.38,-435 145.38,-435 151.38,-441 151.38,-447 151.38,-447 151.38,-467 151.38,-467 151.38,-473 145.38,-479 139.38,-479"/>
<text text-anchor="middle" x="94.62" y="-465.5" font-family="Arial" font-size="10.00">Part 1: COMPONENT</text>
<text text-anchor="middle" x="94.62" y="-453.5" font-family="Arial" font-size="10.00">Glucose</text>
<text text-anchor="middle" x="94.62" y="-441.5" font-family="Arial" font-size="10.00">(What)</text>
</g>
<!-- title&#45;&gt;p1 -->
<!-- p2 -->
<g id="node3" class="node">
<title>p2</title>
<path fill="#e8f5e9" stroke="#388e3c" d="M152.12,-392C152.12,-392 37.12,-392 37.12,-392 31.12,-392 25.12,-386 25.12,-380 25.12,-380 25.12,-360 25.12,-360 25.12,-354 31.12,-348 37.12,-348 37.12,-348 152.12,-348 152.12,-348 158.12,-348 164.12,-354 164.12,-360 164.12,-360 164.12,-380 164.12,-380 164.12,-386 158.12,-392 152.12,-392"/>
<text text-anchor="middle" x="94.62" y="-378.5" font-family="Arial" font-size="10.00">Part 2: PROPERTY</text>
<text text-anchor="middle" x="94.62" y="-366.5" font-family="Arial" font-size="10.00">MCnc (Mass Concentration)</text>
<text text-anchor="middle" x="94.62" y="-354.5" font-family="Arial" font-size="10.00">(How measured)</text>
</g>
<!-- p1&#45;&gt;p2 -->
<g id="edge2" class="edge">
<title>p1&#45;&gt;p2</title>
<path fill="none" stroke="black" d="M94.62,-434.55C94.62,-425.19 94.62,-414 94.62,-403.64"/>
<polygon fill="black" stroke="black" points="98.13,-403.96 94.63,-393.96 91.13,-403.96 98.13,-403.96"/>
</g>
<!-- p3 -->
<g id="node4" class="node">
<title>p3</title>
<path fill="#fff3e0" stroke="#f57c00" d="M127.38,-305C127.38,-305 61.88,-305 61.88,-305 55.88,-305 49.88,-299 49.88,-293 49.88,-293 49.88,-273 49.88,-273 49.88,-267 55.88,-261 61.88,-261 61.88,-261 127.38,-261 127.38,-261 133.38,-261 139.38,-267 139.38,-273 139.38,-273 139.38,-293 139.38,-293 139.38,-299 133.38,-305 127.38,-305"/>
<text text-anchor="middle" x="94.62" y="-291.5" font-family="Arial" font-size="10.00">Part 3: TIME</text>
<text text-anchor="middle" x="94.62" y="-279.5" font-family="Arial" font-size="10.00">Pt (Point in time)</text>
<text text-anchor="middle" x="94.62" y="-267.5" font-family="Arial" font-size="10.00">(When)</text>
</g>
<!-- p2&#45;&gt;p3 -->
<g id="edge3" class="edge">
<title>p2&#45;&gt;p3</title>
<path fill="none" stroke="black" d="M94.62,-347.55C94.62,-338.19 94.62,-327 94.62,-316.64"/>
<polygon fill="black" stroke="black" points="98.13,-316.96 94.63,-306.96 91.13,-316.96 98.13,-316.96"/>
</g>
<!-- p4 -->
<g id="node5" class="node">
<title>p4</title>
<path fill="#f3e5f5" stroke="#7b1fa2" d="M151.75,-218C151.75,-218 37.5,-218 37.5,-218 31.5,-218 25.5,-212 25.5,-206 25.5,-206 25.5,-186 25.5,-186 25.5,-180 31.5,-174 37.5,-174 37.5,-174 151.75,-174 151.75,-174 157.75,-174 163.75,-180 163.75,-186 163.75,-186 163.75,-206 163.75,-206 163.75,-212 157.75,-218 151.75,-218"/>
<text text-anchor="middle" x="94.62" y="-204.5" font-family="Arial" font-size="10.00">Part 4: SYSTEM</text>
<text text-anchor="middle" x="94.62" y="-192.5" font-family="Arial" font-size="10.00">Ser/Plas (Serum or Plasma)</text>
<text text-anchor="middle" x="94.62" y="-180.5" font-family="Arial" font-size="10.00">(Where)</text>
</g>
<!-- p3&#45;&gt;p4 -->
<g id="edge4" class="edge">
<title>p3&#45;&gt;p4</title>
<path fill="none" stroke="black" d="M94.62,-260.55C94.62,-251.19 94.62,-240 94.62,-229.64"/>
<polygon fill="black" stroke="black" points="98.13,-229.96 94.63,-219.96 91.13,-229.96 98.13,-229.96"/>
</g>
<!-- p5 -->
<g id="node6" class="node">
<title>p5</title>
<path fill="#ffcdd2" stroke="#c62828" d="M127.75,-131C127.75,-131 61.5,-131 61.5,-131 55.5,-131 49.5,-125 49.5,-119 49.5,-119 49.5,-99 49.5,-99 49.5,-93 55.5,-87 61.5,-87 61.5,-87 127.75,-87 127.75,-87 133.75,-87 139.75,-93 139.75,-99 139.75,-99 139.75,-119 139.75,-119 139.75,-125 133.75,-131 127.75,-131"/>
<text text-anchor="middle" x="94.62" y="-117.5" font-family="Arial" font-size="10.00">Part 5: SCALE</text>
<text text-anchor="middle" x="94.62" y="-105.5" font-family="Arial" font-size="10.00">Qn (Quantitative)</text>
<text text-anchor="middle" x="94.62" y="-93.5" font-family="Arial" font-size="10.00">(What type)</text>
</g>
<!-- p4&#45;&gt;p5 -->
<g id="edge5" class="edge">
<title>p4&#45;&gt;p5</title>
<path fill="none" stroke="black" d="M94.62,-173.55C94.62,-164.19 94.62,-153 94.62,-142.64"/>
<polygon fill="black" stroke="black" points="98.13,-142.96 94.63,-132.96 91.13,-142.96 98.13,-142.96"/>
</g>
<!-- p6 -->
<g id="node7" class="node">
<title>p6</title>
<path fill="#f5f5f5" stroke="#616161" d="M128.5,-44C128.5,-44 60.75,-44 60.75,-44 54.75,-44 48.75,-38 48.75,-32 48.75,-32 48.75,-12 48.75,-12 48.75,-6 54.75,0 60.75,0 60.75,0 128.5,0 128.5,0 134.5,0 140.5,-6 140.5,-12 140.5,-12 140.5,-32 140.5,-32 140.5,-38 134.5,-44 128.5,-44"/>
<text text-anchor="middle" x="94.62" y="-30.5" font-family="Arial" font-size="10.00">Part 6: METHOD</text>
<text text-anchor="middle" x="94.62" y="-18.5" font-family="Arial" font-size="10.00">(optional)</text>
<text text-anchor="middle" x="94.62" y="-6.5" font-family="Arial" font-size="10.00">(Technique)</text>
</g>
<!-- p5&#45;&gt;p6 -->
<g id="edge6" class="edge">
<title>p5&#45;&gt;p6</title>
<path fill="none" stroke="black" d="M94.62,-86.55C94.62,-77.19 94.62,-66 94.62,-55.64"/>
<polygon fill="black" stroke="black" points="98.13,-55.96 94.63,-45.96 91.13,-55.96 98.13,-55.96"/>
</g>
</g>
</svg>
