<?xml version="1.0" encoding="UTF-8" standalone="no"?>
<!DOCTYPE svg PUBLIC "-//W3C//DTD SVG 1.1//EN"
 "http://www.w3.org/Graphics/SVG/1.1/DTD/svg11.dtd">
<!-- Generated by graphviz version 12.2.1 (20241206.2353)
 -->
<!-- Title: snomed_use_cases Pages: 1 -->
<svg width="701pt" height="124pt"
 viewBox="0.00 0.00 701.25 124.00" xmlns="http://www.w3.org/2000/svg" xmlns:xlink="http://www.w3.org/1999/xlink">
<g id="graph0" class="graph" transform="scale(1 1) rotate(0) translate(4 120)">
<title>snomed_use_cases</title>
<polygon fill="white" stroke="none" points="-4,4 -4,-120 697.25,-120 697.25,4 -4,4"/>
<!-- title -->
<g id="node1" class="node">
<title>title</title>
<path fill="lightgrey" stroke="none" d="M429.75,-116C429.75,-116 285.5,-116 285.5,-116 279.5,-116 273.5,-110 273.5,-104 273.5,-104 273.5,-92 273.5,-92 273.5,-86 279.5,-80 285.5,-80 285.5,-80 429.75,-80 429.75,-80 435.75,-80 441.75,-86 441.75,-92 441.75,-92 441.75,-104 441.75,-104 441.75,-110 435.75,-116 429.75,-116"/>
<text text-anchor="middle" x="357.62" y="-92.58" font-family="Arial" font-size="14.00" fill="#616161">SNOMED CT Use Cases</text>
</g>
<!-- q -->
<g id="node2" class="node">
<title>q</title>
<path fill="#e3f2fd" stroke="#1976d2" d="M123.25,-44C123.25,-44 12,-44 12,-44 6,-44 0,-38 0,-32 0,-32 0,-12 0,-12 0,-6 6,0 12,0 12,0 123.25,0 123.25,0 129.25,0 135.25,-6 135.25,-12 135.25,-12 135.25,-32 135.25,-32 135.25,-38 129.25,-44 123.25,-44"/>
<text text-anchor="middle" x="67.62" y="-30.5" font-family="Arial" font-size="10.00">Qualitative Results</text>
<text text-anchor="middle" x="67.62" y="-18.5" font-family="Arial" font-size="10.00">Blood type (A, B, AB, O)</text>
<text text-anchor="middle" x="67.62" y="-6.5" font-family="Arial" font-size="10.00">112144000 = Blood group A</text>
</g>
<!-- title&#45;&gt;q -->
<!-- i -->
<g id="node3" class="node">
<title>i</title>
<path fill="#e8f5e9" stroke="#388e3c" d="M327.38,-44C327.38,-44 189.88,-44 189.88,-44 183.88,-44 177.88,-38 177.88,-32 177.88,-32 177.88,-12 177.88,-12 177.88,-6 183.88,0 189.88,0 189.88,0 327.38,0 327.38,0 333.38,0 339.38,-6 339.38,-12 339.38,-12 339.38,-32 339.38,-32 339.38,-38 333.38,-44 327.38,-44"/>
<text text-anchor="middle" x="258.62" y="-30.5" font-family="Arial" font-size="10.00">Interpretations</text>
<text text-anchor="middle" x="258.62" y="-18.5" font-family="Arial" font-size="10.00">Positive, Negative, Indeterminate</text>
<text text-anchor="middle" x="258.62" y="-6.5" font-family="Arial" font-size="10.00">10828004 = Positive</text>
</g>
<!-- title&#45;&gt;i -->
<!-- f -->
<g id="node4" class="node">
<title>f</title>
<path fill="#fff3e0" stroke="#f57c00" d="M520.75,-44C520.75,-44 394.5,-44 394.5,-44 388.5,-44 382.5,-38 382.5,-32 382.5,-32 382.5,-12 382.5,-12 382.5,-6 388.5,0 394.5,0 394.5,0 520.75,0 520.75,0 526.75,0 532.75,-6 532.75,-12 532.75,-12 532.75,-32 532.75,-32 532.75,-38 526.75,-44 520.75,-44"/>
<text text-anchor="middle" x="457.62" y="-30.5" font-family="Arial" font-size="10.00">Clinical Findings</text>
<text text-anchor="middle" x="457.62" y="-18.5" font-family="Arial" font-size="10.00">Associated conditions</text>
<text text-anchor="middle" x="457.62" y="-6.5" font-family="Arial" font-size="10.00">166922008 = Elevated glucose</text>
</g>
<!-- title&#45;&gt;f -->
<!-- d -->
<g id="node5" class="node">
<title>d</title>
<path fill="#f3e5f5" stroke="#7b1fa2" d="M681.25,-44C681.25,-44 588,-44 588,-44 582,-44 576,-38 576,-32 576,-32 576,-12 576,-12 576,-6 582,0 588,0 588,0 681.25,0 681.25,0 687.25,0 693.25,-6 693.25,-12 693.25,-12 693.25,-32 693.25,-32 693.25,-38 687.25,-44 681.25,-44"/>
<text text-anchor="middle" x="634.62" y="-30.5" font-family="Arial" font-size="10.00">Diagnoses</text>
<text text-anchor="middle" x="634.62" y="-18.5" font-family="Arial" font-size="10.00">Linked diagnoses</text>
<text text-anchor="middle" x="634.62" y="-6.5" font-family="Arial" font-size="10.00">44054006 = Type 2 DM</text>
</g>
<!-- title&#45;&gt;d -->
</g>
</svg>
