<?xml version="1.0" encoding="UTF-8" standalone="no"?>
<!DOCTYPE svg PUBLIC "-//W3C//DTD SVG 1.1//EN"
 "http://www.w3.org/Graphics/SVG/1.1/DTD/svg11.dtd">
<!-- Generated by graphviz version 12.2.1 (20241206.2353)
 -->
<!-- Title: standards_stack Pages: 1 -->
<svg width="295pt" height="249pt"
 viewBox="0.00 0.00 295.00 248.50" xmlns="http://www.w3.org/2000/svg" xmlns:xlink="http://www.w3.org/1999/xlink">
<g id="graph0" class="graph" transform="scale(1 1) rotate(0) translate(4 244.5)">
<title>standards_stack</title>
<polygon fill="white" stroke="none" points="-4,4 -4,-244.5 291,-244.5 291,4 -4,4"/>
<g id="clust1" class="cluster">
<title>cluster_messaging</title>
<path fill="#e3f2fd" stroke="#1976d2" d="M20,-143.5C20,-143.5 244,-143.5 244,-143.5 250,-143.5 256,-149.5 256,-155.5 256,-155.5 256,-220.5 256,-220.5 256,-226.5 250,-232.5 244,-232.5 244,-232.5 20,-232.5 20,-232.5 14,-232.5 8,-226.5 8,-220.5 8,-220.5 8,-155.5 8,-155.5 8,-149.5 14,-143.5 20,-143.5"/>
<text text-anchor="middle" x="132" y="-215.2" font-family="Times,serif" font-size="14.00">Messaging Layer</text>
</g>
<g id="clust2" class="cluster">
<title>cluster_terminology</title>
<path fill="#f3e5f5" stroke="#7b1fa2" d="M30,-8C30,-8 267,-8 267,-8 273,-8 279,-14 279,-20 279,-20 279,-85 279,-85 279,-91 273,-97 267,-97 267,-97 30,-97 30,-97 24,-97 18,-91 18,-85 18,-85 18,-20 18,-20 18,-14 24,-8 30,-8"/>
<text text-anchor="middle" x="148.5" y="-79.7" font-family="Times,serif" font-size="14.00">Terminology Layer</text>
</g>
<!-- hl7 -->
<g id="node1" class="node">
<title>hl7</title>
<path fill="white" stroke="#1976d2" d="M88.12,-200C88.12,-200 27.88,-200 27.88,-200 21.88,-200 15.88,-194 15.88,-188 15.88,-188 15.88,-163.5 15.88,-163.5 15.88,-157.5 21.88,-151.5 27.88,-151.5 27.88,-151.5 88.12,-151.5 88.12,-151.5 94.12,-151.5 100.12,-157.5 100.12,-163.5 100.12,-163.5 100.12,-188 100.12,-188 100.12,-194 94.12,-200 88.12,-200"/>
<text text-anchor="middle" x="58" y="-185.55" font-family="Arial" font-size="11.00">HL7 v2.x</text>
<text text-anchor="middle" x="58" y="-172.05" font-family="Arial" font-size="11.00">Pipe&#45;delimited</text>
<text text-anchor="middle" x="58" y="-158.55" font-family="Arial" font-size="11.00">Transactional</text>
</g>
<!-- loinc -->
<g id="node3" class="node">
<title>loinc</title>
<path fill="white" stroke="#7b1fa2" d="M106.25,-64.5C106.25,-64.5 37.75,-64.5 37.75,-64.5 31.75,-64.5 25.75,-58.5 25.75,-52.5 25.75,-52.5 25.75,-28 25.75,-28 25.75,-22 31.75,-16 37.75,-16 37.75,-16 106.25,-16 106.25,-16 112.25,-16 118.25,-22 118.25,-28 118.25,-28 118.25,-52.5 118.25,-52.5 118.25,-58.5 112.25,-64.5 106.25,-64.5"/>
<text text-anchor="middle" x="72" y="-50.05" font-family="Arial" font-size="11.00">LOINC</text>
<text text-anchor="middle" x="72" y="-36.55" font-family="Arial" font-size="11.00">Universal codes</text>
<text text-anchor="middle" x="72" y="-23.05" font-family="Arial" font-size="11.00">for &quot;what&quot;</text>
</g>
<!-- hl7&#45;&gt;loinc -->
<g id="edge1" class="edge">
<title>hl7&#45;&gt;loinc</title>
<path fill="none" stroke="black" d="M51.71,-151.1C48.96,-137.56 46.88,-120.27 49.5,-105 51.18,-95.19 54.22,-84.88 57.53,-75.48"/>
<polygon fill="black" stroke="black" points="60.71,-76.96 60.94,-66.37 54.16,-74.51 60.71,-76.96"/>
<text text-anchor="middle" x="59.25" y="-106.95" font-family="Arial" font-size="9.00">uses</text>
</g>
<!-- fhir -->
<g id="node2" class="node">
<title>fhir</title>
<path fill="white" stroke="#1976d2" d="M235.75,-200C235.75,-200 170.25,-200 170.25,-200 164.25,-200 158.25,-194 158.25,-188 158.25,-188 158.25,-163.5 158.25,-163.5 158.25,-157.5 164.25,-151.5 170.25,-151.5 170.25,-151.5 235.75,-151.5 235.75,-151.5 241.75,-151.5 247.75,-157.5 247.75,-163.5 247.75,-163.5 247.75,-188 247.75,-188 247.75,-194 241.75,-200 235.75,-200"/>
<text text-anchor="middle" x="203" y="-185.55" font-family="Arial" font-size="11.00">FHIR R4</text>
<text text-anchor="middle" x="203" y="-172.05" font-family="Arial" font-size="11.00">RESTful JSON</text>
<text text-anchor="middle" x="203" y="-158.55" font-family="Arial" font-size="11.00">Modern APIs</text>
</g>
<!-- fhir&#45;&gt;loinc -->
<g id="edge2" class="edge">
<title>fhir&#45;&gt;loinc</title>
<path fill="none" stroke="black" d="M179.88,-151.19C158.46,-129.36 126.44,-96.73 102.85,-72.69"/>
<polygon fill="black" stroke="black" points="105.45,-70.34 95.95,-65.65 100.45,-75.24 105.45,-70.34"/>
<text text-anchor="middle" x="151.18" y="-106.95" font-family="Arial" font-size="9.00">uses</text>
</g>
<!-- snomed -->
<g id="node4" class="node">
<title>snomed</title>
<path fill="white" stroke="#7b1fa2" d="M259.38,-64.5C259.38,-64.5 188.62,-64.5 188.62,-64.5 182.62,-64.5 176.62,-58.5 176.62,-52.5 176.62,-52.5 176.62,-28 176.62,-28 176.62,-22 182.62,-16 188.62,-16 188.62,-16 259.38,-16 259.38,-16 265.38,-16 271.38,-22 271.38,-28 271.38,-28 271.38,-52.5 271.38,-52.5 271.38,-58.5 265.38,-64.5 259.38,-64.5"/>
<text text-anchor="middle" x="224" y="-50.05" font-family="Arial" font-size="11.00">SNOMED CT</text>
<text text-anchor="middle" x="224" y="-36.55" font-family="Arial" font-size="11.00">Clinical meaning</text>
<text text-anchor="middle" x="224" y="-23.05" font-family="Arial" font-size="11.00">for &quot;why&quot;</text>
</g>
<!-- fhir&#45;&gt;snomed -->
<g id="edge3" class="edge">
<title>fhir&#45;&gt;snomed</title>
<path fill="none" stroke="black" d="M206.71,-151.19C209.99,-130.31 214.83,-99.56 218.55,-75.89"/>
<polygon fill="black" stroke="black" points="222,-76.49 220.1,-66.07 215.08,-75.4 222,-76.49"/>
<text text-anchor="middle" x="223.25" y="-106.95" font-family="Arial" font-size="9.00">uses</text>
</g>
</g>
</svg>
