<?xml version="1.0" encoding="UTF-8" standalone="no"?>
<!DOCTYPE svg PUBLIC "-//W3C//DTD SVG 1.1//EN"
 "http://www.w3.org/Graphics/SVG/1.1/DTD/svg11.dtd">
<!-- Generated by graphviz version 12.2.1 (20241206.2353)
 -->
<!-- Title: hl7_fhir_mapping Pages: 1 -->
<svg width="383pt" height="317pt"
 viewBox="0.00 0.00 383.25 317.00" xmlns="http://www.w3.org/2000/svg" xmlns:xlink="http://www.w3.org/1999/xlink">
<g id="graph0" class="graph" transform="scale(1 1) rotate(0) translate(4 313)">
<title>hl7_fhir_mapping</title>
<polygon fill="white" stroke="none" points="-4,4 -4,-313 379.25,-313 379.25,4 -4,4"/>
<g id="clust1" class="cluster">
<title>cluster_hl7</title>
<path fill="#e3f2fd" stroke="#1976d2" d="M12,-8C12,-8 113.5,-8 113.5,-8 119.5,-8 125.5,-14 125.5,-20 125.5,-20 125.5,-289 125.5,-289 125.5,-295 119.5,-301 113.5,-301 113.5,-301 12,-301 12,-301 6,-301 0,-295 0,-289 0,-289 0,-20 0,-20 0,-14 6,-8 12,-8"/>
<text text-anchor="middle" x="62.75" y="-283.7" font-family="Times,serif" font-size="14.00">HL7 v2.x Messages</text>
</g>
<g id="clust2" class="cluster">
<title>cluster_fhir</title>
<path fill="#e8f5e9" stroke="#388e3c" d="M261.75,-8C261.75,-8 363.25,-8 363.25,-8 369.25,-8 375.25,-14 375.25,-20 375.25,-20 375.25,-289 375.25,-289 375.25,-295 369.25,-301 363.25,-301 363.25,-301 261.75,-301 261.75,-301 255.75,-301 249.75,-295 249.75,-289 249.75,-289 249.75,-20 249.75,-20 249.75,-14 255.75,-8 261.75,-8"/>
<text text-anchor="middle" x="312.5" y="-283.7" font-family="Times,serif" font-size="14.00">FHIR R4 Resources</text>
</g>
<!-- orm -->
<g id="node1" class="node">
<title>orm</title>
<path fill="white" stroke="black" d="M91.62,-268C91.62,-268 32.88,-268 32.88,-268 26.88,-268 20.88,-262 20.88,-256 20.88,-256 20.88,-244 20.88,-244 20.88,-238 26.88,-232 32.88,-232 32.88,-232 91.62,-232 91.62,-232 97.62,-232 103.62,-238 103.62,-244 103.62,-244 103.62,-256 103.62,-256 103.62,-262 97.62,-268 91.62,-268"/>
<text text-anchor="middle" x="62.25" y="-252.5" font-family="Arial" font-size="10.00">ORM^O01</text>
<text text-anchor="middle" x="62.25" y="-240.5" font-family="Arial" font-size="10.00">Order Message</text>
</g>
<!-- sr -->
<g id="node5" class="node">
<title>sr</title>
<path fill="white" stroke="black" d="M342.88,-268C342.88,-268 281.12,-268 281.12,-268 275.12,-268 269.12,-262 269.12,-256 269.12,-256 269.12,-244 269.12,-244 269.12,-238 275.12,-232 281.12,-232 281.12,-232 342.88,-232 342.88,-232 348.88,-232 354.88,-238 354.88,-244 354.88,-244 354.88,-256 354.88,-256 354.88,-262 348.88,-268 342.88,-268"/>
<text text-anchor="middle" x="312" y="-246.5" font-family="Arial" font-size="10.00">ServiceRequest</text>
</g>
<!-- orm&#45;&gt;sr -->
<g id="edge1" class="edge">
<title>orm&#45;&gt;sr</title>
<path fill="none" stroke="#f57c00" stroke-width="2" d="M103.88,-250C145.33,-250 209.91,-250 255.93,-250"/>
<polygon fill="#f57c00" stroke="#f57c00" stroke-width="2" points="255.66,-253.5 265.66,-250 255.66,-246.5 255.66,-253.5"/>
<text text-anchor="middle" x="187.62" y="-251.95" font-family="Arial" font-size="9.00">maps to</text>
</g>
<!-- oru -->
<g id="node2" class="node">
<title>oru</title>
<path fill="white" stroke="black" d="M93.88,-196C93.88,-196 30.62,-196 30.62,-196 24.62,-196 18.62,-190 18.62,-184 18.62,-184 18.62,-172 18.62,-172 18.62,-166 24.62,-160 30.62,-160 30.62,-160 93.88,-160 93.88,-160 99.88,-160 105.88,-166 105.88,-172 105.88,-172 105.88,-184 105.88,-184 105.88,-190 99.88,-196 93.88,-196"/>
<text text-anchor="middle" x="62.25" y="-180.5" font-family="Arial" font-size="10.00">ORU^R01</text>
<text text-anchor="middle" x="62.25" y="-168.5" font-family="Arial" font-size="10.00">Result Message</text>
</g>
<!-- obs -->
<g id="node6" class="node">
<title>obs</title>
<path fill="white" stroke="black" d="M334.25,-196C334.25,-196 289.75,-196 289.75,-196 283.75,-196 277.75,-190 277.75,-184 277.75,-184 277.75,-172 277.75,-172 277.75,-166 283.75,-160 289.75,-160 289.75,-160 334.25,-160 334.25,-160 340.25,-160 346.25,-166 346.25,-172 346.25,-172 346.25,-184 346.25,-184 346.25,-190 340.25,-196 334.25,-196"/>
<text text-anchor="middle" x="312" y="-174.5" font-family="Arial" font-size="10.00">Observation</text>
</g>
<!-- oru&#45;&gt;obs -->
<g id="edge2" class="edge">
<title>oru&#45;&gt;obs</title>
<path fill="none" stroke="#f57c00" stroke-width="2" d="M106.12,-178C150.37,-178 219.16,-178 264.64,-178"/>
<polygon fill="#f57c00" stroke="#f57c00" stroke-width="2" points="264.36,-181.5 274.36,-178 264.36,-174.5 264.36,-181.5"/>
<text text-anchor="middle" x="187.62" y="-179.95" font-family="Arial" font-size="9.00">maps to</text>
</g>
<!-- adt -->
<g id="node3" class="node">
<title>adt</title>
<path fill="white" stroke="black" d="M92.38,-124C92.38,-124 32.12,-124 32.12,-124 26.12,-124 20.12,-118 20.12,-112 20.12,-112 20.12,-100 20.12,-100 20.12,-94 26.12,-88 32.12,-88 32.12,-88 92.38,-88 92.38,-88 98.38,-88 104.38,-94 104.38,-100 104.38,-100 104.38,-112 104.38,-112 104.38,-118 98.38,-124 92.38,-124"/>
<text text-anchor="middle" x="62.25" y="-108.5" font-family="Arial" font-size="10.00">ADT^A01</text>
<text text-anchor="middle" x="62.25" y="-96.5" font-family="Arial" font-size="10.00">Admit Message</text>
</g>
<!-- enc -->
<g id="node7" class="node">
<title>enc</title>
<path fill="white" stroke="black" d="M330.12,-124C330.12,-124 293.88,-124 293.88,-124 287.88,-124 281.88,-118 281.88,-112 281.88,-112 281.88,-100 281.88,-100 281.88,-94 287.88,-88 293.88,-88 293.88,-88 330.12,-88 330.12,-88 336.12,-88 342.12,-94 342.12,-100 342.12,-100 342.12,-112 342.12,-112 342.12,-118 336.12,-124 330.12,-124"/>
<text text-anchor="middle" x="312" y="-102.5" font-family="Arial" font-size="10.00">Encounter</text>
</g>
<!-- adt&#45;&gt;enc -->
<g id="edge3" class="edge">
<title>adt&#45;&gt;enc</title>
<path fill="none" stroke="#f57c00" stroke-width="2" d="M104.72,-106C150.23,-106 222.9,-106 268.73,-106"/>
<polygon fill="#f57c00" stroke="#f57c00" stroke-width="2" points="268.44,-109.5 278.44,-106 268.44,-102.5 268.44,-109.5"/>
<text text-anchor="middle" x="187.62" y="-107.95" font-family="Arial" font-size="9.00">maps to</text>
</g>
<!-- pid -->
<g id="node4" class="node">
<title>pid</title>
<path fill="white" stroke="black" d="M87.88,-52C87.88,-52 36.62,-52 36.62,-52 30.62,-52 24.62,-46 24.62,-40 24.62,-40 24.62,-28 24.62,-28 24.62,-22 30.62,-16 36.62,-16 36.62,-16 87.88,-16 87.88,-16 93.88,-16 99.88,-22 99.88,-28 99.88,-28 99.88,-40 99.88,-40 99.88,-46 93.88,-52 87.88,-52"/>
<text text-anchor="middle" x="62.25" y="-36.5" font-family="Arial" font-size="10.00">PID Segment</text>
<text text-anchor="middle" x="62.25" y="-24.5" font-family="Arial" font-size="10.00">Patient Info</text>
</g>
<!-- pat -->
<g id="node8" class="node">
<title>pat</title>
<path fill="white" stroke="black" d="M327,-52C327,-52 297,-52 297,-52 291,-52 285,-46 285,-40 285,-40 285,-28 285,-28 285,-22 291,-16 297,-16 297,-16 327,-16 327,-16 333,-16 339,-22 339,-28 339,-28 339,-40 339,-40 339,-46 333,-52 327,-52"/>
<text text-anchor="middle" x="312" y="-30.5" font-family="Arial" font-size="10.00">Patient</text>
</g>
<!-- pid&#45;&gt;pat -->
<g id="edge4" class="edge">
<title>pid&#45;&gt;pat</title>
<path fill="none" stroke="#f57c00" stroke-width="2" d="M100.34,-34C146.41,-34 224.67,-34 271.73,-34"/>
<polygon fill="#f57c00" stroke="#f57c00" stroke-width="2" points="271.67,-37.5 281.67,-34 271.67,-30.5 271.67,-37.5"/>
<text text-anchor="middle" x="187.62" y="-35.95" font-family="Arial" font-size="9.00">maps to</text>
</g>
</g>
</svg>
