<?xml version="1.0" encoding="UTF-8" standalone="no"?>
<!DOCTYPE svg PUBLIC "-//W3C//DTD SVG 1.1//EN"
 "http://www.w3.org/Graphics/SVG/1.1/DTD/svg11.dtd">
<!-- Generated by graphviz version 12.2.1 (20241206.2353)
 -->
<!-- Title: interoperability_mindmap Pages: 1 -->
<svg width="856pt" height="789pt"
 viewBox="0.00 0.00 855.71 788.63" xmlns="http://www.w3.org/2000/svg" xmlns:xlink="http://www.w3.org/1999/xlink">
<g id="graph0" class="graph" transform="scale(1 1) rotate(0) translate(4 784.63)">
<title>interoperability_mindmap</title>
<polygon fill="white" stroke="none" points="-4,4 -4,-784.63 851.71,-784.63 851.71,4 -4,4"/>
<!-- center -->
<g id="node1" class="node">
<title>center</title>
<ellipse fill="#4caf50" stroke="black" cx="444.18" cy="-411.63" rx="72" ry="36"/>
<text text-anchor="middle" x="444.18" y="-414.08" font-family="Arial" font-size="14.00" fill="white">Healthcare</text>
<text text-anchor="middle" x="444.18" y="-398.33" font-family="Arial" font-size="14.00" fill="white">Interoperability</text>
</g>
<!-- messaging -->
<g id="node2" class="node">
<title>messaging</title>
<ellipse fill="#e3f2fd" stroke="#1976d2" cx="607.55" cy="-557.09" rx="44.72" ry="22.63"/>
<text text-anchor="middle" x="607.55" y="-559.59" font-family="Arial" font-size="10.00">Messaging</text>
<text text-anchor="middle" x="607.55" y="-547.59" font-family="Arial" font-size="10.00">Standards</text>
</g>
<!-- center&#45;&#45;messaging -->
<g id="edge1" class="edge">
<title>center&#45;&#45;messaging</title>
<path fill="none" stroke="#1976d2" stroke-width="2" d="M479.63,-443.19C511.73,-471.77 558.02,-512.98 585.23,-537.21"/>
</g>
<!-- terminology -->
<g id="node3" class="node">
<title>terminology</title>
<ellipse fill="#f3e5f5" stroke="#7b1fa2" cx="488.24" cy="-197.45" rx="48.44" ry="22.63"/>
<text text-anchor="middle" x="488.24" y="-199.95" font-family="Arial" font-size="10.00">Terminology</text>
<text text-anchor="middle" x="488.24" y="-187.95" font-family="Arial" font-size="10.00">Standards</text>
</g>
<!-- center&#45;&#45;terminology -->
<g id="edge2" class="edge">
<title>center&#45;&#45;terminology</title>
<path fill="none" stroke="#7b1fa2" stroke-width="2" d="M451.56,-375.78C460.67,-331.48 475.9,-257.41 483.55,-220.22"/>
</g>
<!-- patterns -->
<g id="node4" class="node">
<title>patterns</title>
<ellipse fill="#fff3e0" stroke="#f57c00" cx="236.67" cy="-480.86" rx="43.66" ry="22.63"/>
<text text-anchor="middle" x="236.67" y="-483.36" font-family="Arial" font-size="10.00">Integration</text>
<text text-anchor="middle" x="236.67" y="-471.36" font-family="Arial" font-size="10.00">Patterns</text>
</g>
<!-- center&#45;&#45;patterns -->
<g id="edge3" class="edge">
<title>center&#45;&#45;patterns</title>
<path fill="none" stroke="#f57c00" stroke-width="2" d="M383.88,-431.74C348.22,-443.64 304.2,-458.33 273.63,-468.53"/>
</g>
<!-- hl7 -->
<g id="node5" class="node">
<title>hl7</title>
<ellipse fill="white" stroke="#1976d2" cx="814.19" cy="-560.8" rx="33.52" ry="18"/>
<text text-anchor="middle" x="814.19" y="-557.3" font-family="Arial" font-size="10.00">HL7 v2.x</text>
</g>
<!-- messaging&#45;&#45;hl7 -->
<g id="edge4" class="edge">
<title>messaging&#45;&#45;hl7</title>
<path fill="none" stroke="#1976d2" d="M652.65,-557.9C691.12,-558.59 745.59,-559.56 780.4,-560.19"/>
</g>
<!-- fhir -->
<g id="node6" class="node">
<title>fhir</title>
<ellipse fill="white" stroke="#1976d2" cx="630.95" cy="-762.63" rx="33.52" ry="18"/>
<text text-anchor="middle" x="630.95" y="-759.13" font-family="Arial" font-size="10.00">FHIR R4</text>
</g>
<!-- messaging&#45;&#45;fhir -->
<g id="edge5" class="edge">
<title>messaging&#45;&#45;fhir</title>
<path fill="none" stroke="#1976d2" d="M610.15,-579.87C614.82,-620.95 624.58,-706.64 628.86,-744.25"/>
</g>
<!-- loinc -->
<g id="node7" class="node">
<title>loinc</title>
<ellipse fill="white" stroke="#7b1fa2" cx="385.57" cy="-18" rx="28.11" ry="18"/>
<text text-anchor="middle" x="385.57" y="-14.5" font-family="Arial" font-size="10.00">LOINC</text>
</g>
<!-- terminology&#45;&#45;loinc -->
<g id="edge6" class="edge">
<title>terminology&#45;&#45;loinc</title>
<path fill="none" stroke="#7b1fa2" d="M475.65,-175.44C454.98,-139.32 414.28,-68.18 395.5,-35.35"/>
</g>
<!-- snomed -->
<g id="node8" class="node">
<title>snomed</title>
<ellipse fill="white" stroke="#7b1fa2" cx="653.27" cy="-72.92" rx="46.15" ry="18"/>
<text text-anchor="middle" x="653.27" y="-69.42" font-family="Arial" font-size="10.00">SNOMED CT</text>
</g>
<!-- terminology&#45;&#45;snomed -->
<g id="edge7" class="edge">
<title>terminology&#45;&#45;snomed</title>
<path fill="none" stroke="#7b1fa2" d="M514.02,-177.99C546.39,-153.57 601.32,-112.12 631.61,-89.26"/>
</g>
<!-- p2p -->
<g id="node9" class="node">
<title>p2p</title>
<ellipse fill="white" stroke="#f57c00" cx="45.25" cy="-403.02" rx="45.25" ry="18"/>
<text text-anchor="middle" x="45.25" y="-399.52" font-family="Arial" font-size="10.00">Point&#45;to&#45;Point</text>
</g>
<!-- patterns&#45;&#45;p2p -->
<g id="edge8" class="edge">
<title>patterns&#45;&#45;p2p</title>
<path fill="none" stroke="#f57c00" d="M202,-466.76C166.56,-452.35 111.94,-430.14 77.43,-416.11"/>
</g>
<!-- batch -->
<g id="node10" class="node">
<title>batch</title>
<ellipse fill="white" stroke="#f57c00" cx="134.34" cy="-660.65" rx="27" ry="18"/>
<text text-anchor="middle" x="134.34" y="-657.15" font-family="Arial" font-size="10.00">Batch</text>
</g>
<!-- patterns&#45;&#45;batch -->
<g id="edge9" class="edge">
<title>patterns&#45;&#45;batch</title>
<path fill="none" stroke="#f57c00" d="M224.12,-502.9C203.47,-539.19 162.75,-610.75 144.09,-643.52"/>
</g>
</g>
</svg>
