<?xml version="1.0" encoding="UTF-8" standalone="no"?>
<!DOCTYPE svg PUBLIC "-//W3C//DTD SVG 1.1//EN"
 "http://www.w3.org/Graphics/SVG/1.1/DTD/svg11.dtd">
<!-- Generated by graphviz version 12.2.1 (20241206.2353)
 -->
<!-- Title: lab_workflow Pages: 1 -->
<svg width="341pt" height="487pt"
 viewBox="0.00 0.00 341.25 486.51" xmlns="http://www.w3.org/2000/svg" xmlns:xlink="http://www.w3.org/1999/xlink">
<g id="graph0" class="graph" transform="scale(1 1) rotate(0) translate(4 482.51)">
<title>lab_workflow</title>
<polygon fill="white" stroke="none" points="-4,4 -4,-482.51 337.25,-482.51 337.25,4 -4,4"/>
<!-- start -->
<g id="node1" class="node">
<title>start</title>
<ellipse fill="#e8f5e9" stroke="#388e3c" cx="164.5" cy="-455.88" rx="45.25" ry="22.63"/>
<text text-anchor="middle" x="164.5" y="-458.38" font-family="Arial" font-size="10.00">Physician</text>
<text text-anchor="middle" x="164.5" y="-446.38" font-family="Arial" font-size="10.00">Orders Lab</text>
</g>
<!-- ehr_order -->
<g id="node2" class="node">
<title>ehr_order</title>
<path fill="#e3f2fd" stroke="#1976d2" d="M211.5,-388.25C211.5,-388.25 117.5,-388.25 117.5,-388.25 111.5,-388.25 105.5,-382.25 105.5,-376.25 105.5,-376.25 105.5,-364.25 105.5,-364.25 105.5,-358.25 111.5,-352.25 117.5,-352.25 117.5,-352.25 211.5,-352.25 211.5,-352.25 217.5,-352.25 223.5,-358.25 223.5,-364.25 223.5,-364.25 223.5,-376.25 223.5,-376.25 223.5,-382.25 217.5,-388.25 211.5,-388.25"/>
<text text-anchor="middle" x="164.5" y="-372.75" font-family="Arial" font-size="10.00">EHR: Create Order</text>
<text text-anchor="middle" x="164.5" y="-360.75" font-family="Arial" font-size="10.00">LOINC: 85025&#45;9 (CBC)</text>
</g>
<!-- start&#45;&gt;ehr_order -->
<g id="edge1" class="edge">
<title>start&#45;&gt;ehr_order</title>
<path fill="none" stroke="black" d="M164.5,-432.91C164.5,-422.85 164.5,-410.81 164.5,-400.04"/>
<polygon fill="black" stroke="black" points="168,-400.11 164.5,-390.11 161,-400.11 168,-400.11"/>
</g>
<!-- integration -->
<g id="node3" class="node">
<title>integration</title>
<path fill="#fff3e0" stroke="#f57c00" d="M202.12,-297.75C202.12,-297.75 126.88,-297.75 126.88,-297.75 120.88,-297.75 114.88,-291.75 114.88,-285.75 114.88,-285.75 114.88,-273.75 114.88,-273.75 114.88,-267.75 120.88,-261.75 126.88,-261.75 126.88,-261.75 202.12,-261.75 202.12,-261.75 208.12,-261.75 214.12,-267.75 214.12,-273.75 214.12,-273.75 214.12,-285.75 214.12,-285.75 214.12,-291.75 208.12,-297.75 202.12,-297.75"/>
<text text-anchor="middle" x="164.5" y="-282.25" font-family="Arial" font-size="10.00">Integration Engine</text>
<text text-anchor="middle" x="164.5" y="-270.25" font-family="Arial" font-size="10.00">Transform &amp; Route</text>
</g>
<!-- ehr_order&#45;&gt;integration -->
<g id="edge2" class="edge">
<title>ehr_order&#45;&gt;integration</title>
<path fill="none" stroke="black" d="M164.5,-351.77C164.5,-339.77 164.5,-323.56 164.5,-309.66"/>
<polygon fill="black" stroke="black" points="168,-309.72 164.5,-299.72 161,-309.72 168,-309.72"/>
<text text-anchor="middle" x="199.75" y="-321.7" font-family="Arial" font-size="9.00">ORM^O01 / FHIR</text>
</g>
<!-- lis_receive -->
<g id="node4" class="node">
<title>lis_receive</title>
<path fill="#e8f5e9" stroke="#388e3c" d="M96.5,-216.75C96.5,-216.75 20.5,-216.75 20.5,-216.75 14.5,-216.75 8.5,-210.75 8.5,-204.75 8.5,-204.75 8.5,-192.75 8.5,-192.75 8.5,-186.75 14.5,-180.75 20.5,-180.75 20.5,-180.75 96.5,-180.75 96.5,-180.75 102.5,-180.75 108.5,-186.75 108.5,-192.75 108.5,-192.75 108.5,-204.75 108.5,-204.75 108.5,-210.75 102.5,-216.75 96.5,-216.75"/>
<text text-anchor="middle" x="58.5" y="-195.25" font-family="Arial" font-size="10.00">LIS: Receive Order</text>
</g>
<!-- integration&#45;&gt;lis_receive -->
<g id="edge3" class="edge">
<title>integration&#45;&gt;lis_receive</title>
<path fill="none" stroke="black" d="M141.24,-261.42C126.46,-250.41 107.13,-236 90.87,-223.88"/>
<polygon fill="black" stroke="black" points="93.03,-221.13 82.92,-217.96 88.85,-226.74 93.03,-221.13"/>
</g>
<!-- ehr_results -->
<g id="node7" class="node">
<title>ehr_results</title>
<path fill="#e3f2fd" stroke="#1976d2" d="M321.25,-216.75C321.25,-216.75 231.75,-216.75 231.75,-216.75 225.75,-216.75 219.75,-210.75 219.75,-204.75 219.75,-204.75 219.75,-192.75 219.75,-192.75 219.75,-186.75 225.75,-180.75 231.75,-180.75 231.75,-180.75 321.25,-180.75 321.25,-180.75 327.25,-180.75 333.25,-186.75 333.25,-192.75 333.25,-192.75 333.25,-204.75 333.25,-204.75 333.25,-210.75 327.25,-216.75 321.25,-216.75"/>
<text text-anchor="middle" x="276.5" y="-195.25" font-family="Arial" font-size="10.00">EHR: Display Results</text>
</g>
<!-- integration&#45;&gt;ehr_results -->
<g id="edge7" class="edge">
<title>integration&#45;&gt;ehr_results</title>
<path fill="none" stroke="black" d="M189.08,-261.42C204.83,-250.3 225.5,-235.73 242.78,-223.54"/>
<polygon fill="black" stroke="black" points="244.59,-226.55 250.74,-217.92 240.55,-220.83 244.59,-226.55"/>
</g>
<!-- lis_process -->
<g id="node5" class="node">
<title>lis_process</title>
<path fill="#e8f5e9" stroke="#388e3c" d="M97,-126.25C97,-126.25 12,-126.25 12,-126.25 6,-126.25 0,-120.25 0,-114.25 0,-114.25 0,-102.25 0,-102.25 0,-96.25 6,-90.25 12,-90.25 12,-90.25 97,-90.25 97,-90.25 103,-90.25 109,-96.25 109,-102.25 109,-102.25 109,-114.25 109,-114.25 109,-120.25 103,-126.25 97,-126.25"/>
<text text-anchor="middle" x="54.5" y="-104.75" font-family="Arial" font-size="10.00">LIS: Process Sample</text>
</g>
<!-- lis_receive&#45;&gt;lis_process -->
<g id="edge4" class="edge">
<title>lis_receive&#45;&gt;lis_process</title>
<path fill="none" stroke="black" d="M57.71,-180.27C57.17,-168.27 56.43,-152.06 55.81,-138.16"/>
<polygon fill="black" stroke="black" points="59.31,-138.05 55.36,-128.22 52.31,-138.36 59.31,-138.05"/>
</g>
<!-- lis_results -->
<g id="node6" class="node">
<title>lis_results</title>
<path fill="#e8f5e9" stroke="#388e3c" d="M160,-40.63C160,-40.63 69,-40.63 69,-40.63 63,-40.63 57,-34.63 57,-28.63 57,-28.63 57,-16.63 57,-16.63 57,-10.63 63,-4.63 69,-4.63 69,-4.63 160,-4.63 160,-4.63 166,-4.63 172,-10.63 172,-16.63 172,-16.63 172,-28.63 172,-28.63 172,-34.63 166,-40.63 160,-40.63"/>
<text text-anchor="middle" x="114.5" y="-25.13" font-family="Arial" font-size="10.00">LIS: Generate Results</text>
<text text-anchor="middle" x="114.5" y="-13.13" font-family="Arial" font-size="10.00">+ SNOMED CT codes</text>
</g>
<!-- lis_process&#45;&gt;lis_results -->
<g id="edge5" class="edge">
<title>lis_process&#45;&gt;lis_results</title>
<path fill="none" stroke="black" d="M66.93,-89.93C75.22,-78.38 86.27,-62.98 95.63,-49.93"/>
<polygon fill="black" stroke="black" points="98.22,-52.33 101.2,-42.16 92.53,-48.25 98.22,-52.33"/>
</g>
<!-- lis_results&#45;&gt;integration -->
<g id="edge6" class="edge">
<title>lis_results&#45;&gt;integration</title>
<path fill="none" stroke="black" d="M117.91,-41.02C126.39,-84.32 148.52,-197.24 158.93,-250.36"/>
<polygon fill="black" stroke="black" points="155.49,-250.99 160.85,-260.13 162.36,-249.65 155.49,-250.99"/>
<text text-anchor="middle" x="175.82" y="-150.2" font-family="Arial" font-size="9.00">ORU^R01 / FHIR</text>
</g>
<!-- cds_eval -->
<g id="node8" class="node">
<title>cds_eval</title>
<path fill="#ffcdd2" stroke="#c62828" d="M305.5,-126.25C305.5,-126.25 247.5,-126.25 247.5,-126.25 241.5,-126.25 235.5,-120.25 235.5,-114.25 235.5,-114.25 235.5,-102.25 235.5,-102.25 235.5,-96.25 241.5,-90.25 247.5,-90.25 247.5,-90.25 305.5,-90.25 305.5,-90.25 311.5,-90.25 317.5,-96.25 317.5,-102.25 317.5,-102.25 317.5,-114.25 317.5,-114.25 317.5,-120.25 311.5,-126.25 305.5,-126.25"/>
<text text-anchor="middle" x="276.5" y="-110.75" font-family="Arial" font-size="10.00">CDS: Evaluate</text>
<text text-anchor="middle" x="276.5" y="-98.75" font-family="Arial" font-size="10.00">Against Rules</text>
</g>
<!-- ehr_results&#45;&gt;cds_eval -->
<g id="edge8" class="edge">
<title>ehr_results&#45;&gt;cds_eval</title>
<path fill="none" stroke="black" d="M276.5,-180.27C276.5,-168.27 276.5,-152.06 276.5,-138.16"/>
<polygon fill="black" stroke="black" points="280,-138.22 276.5,-128.22 273,-138.22 280,-138.22"/>
</g>
<!-- end -->
<g id="node9" class="node">
<title>end</title>
<ellipse fill="#e8f5e9" stroke="#388e3c" cx="276.5" cy="-22.63" rx="41.54" ry="22.63"/>
<text text-anchor="middle" x="276.5" y="-25.13" font-family="Arial" font-size="10.00">Physician</text>
<text text-anchor="middle" x="276.5" y="-13.13" font-family="Arial" font-size="10.00">Reviews</text>
</g>
<!-- cds_eval&#45;&gt;end -->
<g id="edge9" class="edge">
<title>cds_eval&#45;&gt;end</title>
<path fill="none" stroke="black" d="M276.5,-89.93C276.5,-80.41 276.5,-68.28 276.5,-57.01"/>
<polygon fill="black" stroke="black" points="280,-57.23 276.5,-47.23 273,-57.23 280,-57.23"/>
</g>
</g>
</svg>
