<?xml version="1.0" encoding="UTF-8" standalone="no"?>
<!DOCTYPE svg PUBLIC "-//W3C//DTD SVG 1.1//EN"
 "http://www.w3.org/Graphics/SVG/1.1/DTD/svg11.dtd">
<!-- Generated by graphviz version 12.2.1 (20241206.2353)
 -->
<!-- Title: standards_stack Pages: 1 -->
<svg width="378pt" height="297pt"
 viewBox="0.00 0.00 378.38 296.50" xmlns="http://www.w3.org/2000/svg" xmlns:xlink="http://www.w3.org/1999/xlink">
<g id="graph0" class="graph" transform="scale(1 1) rotate(0) translate(4 292.5)">
<title>standards_stack</title>
<polygon fill="white" stroke="none" points="-4,4 -4,-292.5 374.38,-292.5 374.38,4 -4,4"/>
<g id="clust1" class="cluster">
<title>cluster_messaging</title>
<path fill="#e3f2fd" stroke="#1976d2" d="M96.38,-131C96.38,-131 334.38,-131 334.38,-131 340.38,-131 346.38,-137 346.38,-143 346.38,-143 346.38,-195.5 346.38,-195.5 346.38,-201.5 340.38,-207.5 334.38,-207.5 334.38,-207.5 96.38,-207.5 96.38,-207.5 90.38,-207.5 84.38,-201.5 84.38,-195.5 84.38,-195.5 84.38,-143 84.38,-143 84.38,-137 90.38,-131 96.38,-131"/>
<text text-anchor="middle" x="215.38" y="-190.2" font-family="Times,serif" font-size="14.00">Messaging Standards</text>
</g>
<g id="clust2" class="cluster">
<title>cluster_terminology</title>
<path fill="#f3e5f5" stroke="#7b1fa2" d="M132.38,-8C132.38,-8 350.38,-8 350.38,-8 356.38,-8 362.38,-14 362.38,-20 362.38,-20 362.38,-72.5 362.38,-72.5 362.38,-78.5 356.38,-84.5 350.38,-84.5 350.38,-84.5 132.38,-84.5 132.38,-84.5 126.38,-84.5 120.38,-78.5 120.38,-72.5 120.38,-72.5 120.38,-20 120.38,-20 120.38,-14 126.38,-8 132.38,-8"/>
<text text-anchor="middle" x="241.38" y="-67.2" font-family="Times,serif" font-size="14.00">Terminology Standards</text>
</g>
<!-- title -->
<g id="node1" class="node">
<title>title</title>
<path fill="lightgrey" stroke="none" d="M274.75,-288.5C274.75,-288.5 12,-288.5 12,-288.5 6,-288.5 0,-282.5 0,-276.5 0,-276.5 0,-264.5 0,-264.5 0,-258.5 6,-252.5 12,-252.5 12,-252.5 274.75,-252.5 274.75,-252.5 280.75,-252.5 286.75,-258.5 286.75,-264.5 286.75,-264.5 286.75,-276.5 286.75,-276.5 286.75,-282.5 280.75,-288.5 274.75,-288.5"/>
<text text-anchor="middle" x="143.38" y="-264.68" font-family="Arial" font-size="16.00" fill="#616161">Healthcare Data Exchange Standards</text>
</g>
<!-- hl7 -->
<g id="node2" class="node">
<title>hl7</title>
<path fill="white" stroke="#1976d2" d="M182.5,-175C182.5,-175 104.25,-175 104.25,-175 98.25,-175 92.25,-169 92.25,-163 92.25,-163 92.25,-151 92.25,-151 92.25,-145 98.25,-139 104.25,-139 104.25,-139 182.5,-139 182.5,-139 188.5,-139 194.5,-145 194.5,-151 194.5,-151 194.5,-163 194.5,-163 194.5,-169 188.5,-175 182.5,-175"/>
<text text-anchor="middle" x="143.38" y="-160.05" font-family="Arial" font-size="11.00">HL7 v2.x</text>
<text text-anchor="middle" x="143.38" y="-146.55" font-family="Arial" font-size="11.00">(Legacy Systems)</text>
</g>
<!-- title&#45;&gt;hl7 -->
<!-- loinc -->
<g id="node4" class="node">
<title>loinc</title>
<path fill="white" stroke="#7b1fa2" d="M194.12,-52C194.12,-52 140.62,-52 140.62,-52 134.62,-52 128.62,-46 128.62,-40 128.62,-40 128.62,-28 128.62,-28 128.62,-22 134.62,-16 140.62,-16 140.62,-16 194.12,-16 194.12,-16 200.12,-16 206.12,-22 206.12,-28 206.12,-28 206.12,-40 206.12,-40 206.12,-46 200.12,-52 194.12,-52"/>
<text text-anchor="middle" x="167.38" y="-37.05" font-family="Arial" font-size="11.00">LOINC</text>
<text text-anchor="middle" x="167.38" y="-23.55" font-family="Arial" font-size="11.00">(Test Codes)</text>
</g>
<!-- hl7&#45;&gt;loinc -->
<g id="edge2" class="edge">
<title>hl7&#45;&gt;loinc</title>
<path fill="none" stroke="black" d="M137.43,-138.53C133.91,-125.64 130.86,-107.77 134.88,-92.5 137.7,-81.75 143.05,-70.9 148.6,-61.56"/>
<polygon fill="black" stroke="black" points="151.39,-63.7 153.79,-53.38 145.48,-59.95 151.39,-63.7"/>
<text text-anchor="middle" x="144.62" y="-94.45" font-family="Arial" font-size="9.00">uses</text>
</g>
<!-- fhir -->
<g id="node3" class="node">
<title>fhir</title>
<path fill="white" stroke="#1976d2" d="M326.25,-175C326.25,-175 264.5,-175 264.5,-175 258.5,-175 252.5,-169 252.5,-163 252.5,-163 252.5,-151 252.5,-151 252.5,-145 258.5,-139 264.5,-139 264.5,-139 326.25,-139 326.25,-139 332.25,-139 338.25,-145 338.25,-151 338.25,-151 338.25,-163 338.25,-163 338.25,-169 332.25,-175 326.25,-175"/>
<text text-anchor="middle" x="295.38" y="-160.05" font-family="Arial" font-size="11.00">FHIR R4</text>
<text text-anchor="middle" x="295.38" y="-146.55" font-family="Arial" font-size="11.00">(Modern APIs)</text>
</g>
<!-- fhir&#45;&gt;loinc -->
<g id="edge3" class="edge">
<title>fhir&#45;&gt;loinc</title>
<path fill="none" stroke="black" d="M277.04,-138.66C255.27,-118.09 218.8,-83.61 193.94,-60.12"/>
<polygon fill="black" stroke="black" points="196.45,-57.67 186.78,-53.34 191.64,-62.76 196.45,-57.67"/>
<text text-anchor="middle" x="248.79" y="-94.45" font-family="Arial" font-size="9.00">uses</text>
</g>
<!-- snomed -->
<g id="node5" class="node">
<title>snomed</title>
<path fill="white" stroke="#7b1fa2" d="M342.5,-52C342.5,-52 276.25,-52 276.25,-52 270.25,-52 264.25,-46 264.25,-40 264.25,-40 264.25,-28 264.25,-28 264.25,-22 270.25,-16 276.25,-16 276.25,-16 342.5,-16 342.5,-16 348.5,-16 354.5,-22 354.5,-28 354.5,-28 354.5,-40 354.5,-40 354.5,-46 348.5,-52 342.5,-52"/>
<text text-anchor="middle" x="309.38" y="-37.05" font-family="Arial" font-size="11.00">SNOMED CT</text>
<text text-anchor="middle" x="309.38" y="-23.55" font-family="Arial" font-size="11.00">(Clinical Terms)</text>
</g>
<!-- fhir&#45;&gt;snomed -->
<g id="edge4" class="edge">
<title>fhir&#45;&gt;snomed</title>
<path fill="none" stroke="black" d="M297.38,-138.66C299.65,-119.08 303.37,-86.89 306.07,-63.58"/>
<polygon fill="black" stroke="black" points="309.53,-64.14 307.2,-53.81 302.57,-63.34 309.53,-64.14"/>
<text text-anchor="middle" x="312.12" y="-94.45" font-family="Arial" font-size="9.00">uses</text>
</g>
</g>
</svg>
